<?xml version="1.0" encoding="utf-8"?>
<!-- Generator: Adobe Illustrator 21.0.0, SVG Export Plug-In . SVG Version: 6.00 Build 0)  -->
<svg version="1.1" xmlns="http://www.w3.org/2000/svg" xmlns:xlink="http://www.w3.org/1999/xlink" x="0px" y="0px"
	 viewBox="0 0 350 781" style="enable-background:new 0 0 350 781;" xml:space="preserve">
<style type="text/css">
	.st0{fill:none;stroke:#333333;stroke-width:1.5;}
	.st1{fill:#333333;}
	.st2{fill:none;stroke:#333333;stroke-linecap:round;}
	.st3{fill:#FF0000;}
	.st4{fill:#0000FF;}
	.st5{fill:none;stroke:#333333;}
	.st6{fill:#808080;}
	.st7{fill:#B3B3B3;}
	.st8{fill:#39B54A;}
	.st9{fill:#FFA23B;}
	.st10{fill:#F14424;}
	.st11{fill:none;stroke:#B3B3B3;}
	.st12{fill:none;stroke:#666666;}
	.st13{fill:none;stroke:#808080;stroke-width:0.5;}
</style>
<g id="Layer_2">
	<g>
		<g>
			<polyline class="st0" points="44.6,44.1 44.6,269.3 270.8,269.3 			"/>
			<g>
				<polygon class="st1" points="38.7,48.8 39.8,49.8 44.6,44.7 49.3,49.8 50.4,48.8 44.6,42.6 				"/>
			</g>
			<g>
				<polygon class="st1" points="266.1,275.1 265.1,274.1 270.2,269.3 265.1,264.5 266.1,263.5 272.3,269.3 				"/>
			</g>
		</g>
	</g>
	<line class="st2" x1="44.1" y1="62.2" x2="39.6" y2="62.2"/>
	<line class="st2" x1="44.1" y1="79.5" x2="39.6" y2="79.5"/>
	<line class="st2" x1="44.1" y1="96.8" x2="39.6" y2="96.8"/>
	<line class="st2" x1="44.1" y1="114" x2="39.6" y2="114"/>
	<line class="st2" x1="44.1" y1="131.2" x2="39.6" y2="131.2"/>
	<line class="st2" x1="44.1" y1="148.5" x2="39.6" y2="148.5"/>
	<line class="st2" x1="44.1" y1="165.8" x2="39.6" y2="165.8"/>
	<line class="st2" x1="44.1" y1="183" x2="39.6" y2="183"/>
	<line class="st2" x1="44.1" y1="200.2" x2="39.6" y2="200.2"/>
	<line class="st2" x1="44.1" y1="217.5" x2="39.6" y2="217.5"/>
	<line class="st2" x1="44.1" y1="234.8" x2="39.6" y2="234.8"/>
	<line class="st2" x1="44.1" y1="252" x2="39.6" y2="252"/>
	<line class="st2" x1="252.3" y1="274.5" x2="252.3" y2="270"/>
	<line class="st2" x1="235.1" y1="274.5" x2="235.1" y2="270"/>
	<line class="st2" x1="217.8" y1="274.5" x2="217.8" y2="270"/>
	<line class="st2" x1="200.6" y1="274.5" x2="200.6" y2="270"/>
	<line class="st2" x1="183.3" y1="274.5" x2="183.3" y2="270"/>
	<line class="st2" x1="166.1" y1="274.5" x2="166.1" y2="270"/>
	<line class="st2" x1="148.8" y1="274.5" x2="148.8" y2="270"/>
	<line class="st2" x1="131.6" y1="274.5" x2="131.6" y2="270"/>
	<line class="st2" x1="114.3" y1="274.5" x2="114.3" y2="270"/>
	<line class="st2" x1="97.1" y1="274.5" x2="97.1" y2="270"/>
	<line class="st2" x1="79.8" y1="274.5" x2="79.8" y2="270"/>
	<line class="st2" x1="62.6" y1="274.5" x2="62.6" y2="270"/>
	<g>
		<path class="st3" d="M18.6,31l-3.1-9.4h1.3l1.5,4.7c0.4,1.3,0.8,2.4,1,3.5h0c0.3-1.1,0.7-2.3,1.1-3.5l1.6-4.7h1.3L20,31H18.6z"/>
		<path class="st3" d="M27.6,31l-0.1-0.9h0c-0.4,0.5-1.1,1-2.1,1c-1.4,0-2.1-1-2.1-1.9c0-1.6,1.5-2.5,4.1-2.5v-0.1
			c0-0.6-0.2-1.6-1.5-1.6c-0.6,0-1.3,0.2-1.8,0.5l-0.3-0.8c0.6-0.4,1.4-0.6,2.2-0.6c2.1,0,2.6,1.4,2.6,2.8v2.5c0,0.6,0,1.2,0.1,1.6
			H27.6z M27.4,27.5c-1.3,0-2.9,0.2-2.9,1.5c0,0.8,0.5,1.2,1.2,1.2c0.9,0,1.4-0.6,1.6-1.1c0-0.1,0.1-0.3,0.1-0.4V27.5z"/>
		<path class="st3" d="M30.6,26.3c0-0.8,0-1.5-0.1-2.1h1.1l0,1.3h0.1c0.3-0.9,1.1-1.5,1.9-1.5c0.1,0,0.2,0,0.4,0v1.2
			c-0.1,0-0.3,0-0.4,0c-0.9,0-1.5,0.7-1.7,1.6c0,0.2-0.1,0.4-0.1,0.6V31h-1.2V26.3z"/>
		<path class="st3" d="M36.6,22.3c0,0.4-0.3,0.8-0.8,0.8c-0.4,0-0.7-0.3-0.7-0.8c0-0.4,0.3-0.8,0.8-0.8
			C36.3,21.5,36.6,21.9,36.6,22.3z M35.3,31v-6.8h1.2V31H35.3z"/>
		<path class="st3" d="M42.3,31l-0.1-0.9h0c-0.4,0.5-1.1,1-2.1,1c-1.4,0-2.1-1-2.1-1.9c0-1.6,1.5-2.5,4.1-2.5v-0.1
			c0-0.6-0.2-1.6-1.5-1.6c-0.6,0-1.3,0.2-1.8,0.5l-0.3-0.8c0.6-0.4,1.4-0.6,2.2-0.6c2.1,0,2.6,1.4,2.6,2.8v2.5c0,0.6,0,1.2,0.1,1.6
			H42.3z M42.1,27.5c-1.3,0-2.9,0.2-2.9,1.5c0,0.8,0.5,1.2,1.2,1.2c0.9,0,1.4-0.6,1.6-1.1c0-0.1,0.1-0.3,0.1-0.4V27.5z"/>
		<path class="st3" d="M45.2,31c0-0.5,0.1-1.1,0.1-1.8v-8.2h1.2v4.3h0c0.4-0.8,1.2-1.2,2.3-1.2c1.7,0,2.9,1.4,2.9,3.5
			c0,2.4-1.5,3.6-3,3.6c-1,0-1.8-0.4-2.3-1.3h0L46.3,31H45.2z M46.5,28.3c0,0.2,0,0.3,0.1,0.4c0.2,0.9,1,1.4,1.8,1.4
			c1.3,0,2.1-1.1,2.1-2.6c0-1.4-0.7-2.5-2-2.5c-0.8,0-1.6,0.6-1.9,1.5c0,0.1-0.1,0.3-0.1,0.5V28.3z"/>
		<path class="st3" d="M53.2,21.1h1.2V31h-1.2V21.1z"/>
		<path class="st3" d="M57.2,27.8c0,1.7,1.1,2.4,2.3,2.4c0.9,0,1.4-0.2,1.9-0.4l0.2,0.9c-0.4,0.2-1.2,0.4-2.3,0.4
			c-2.1,0-3.3-1.4-3.3-3.4c0-2,1.2-3.7,3.2-3.7c2.2,0,2.8,1.9,2.8,3.2c0,0.3,0,0.4,0,0.6H57.2z M60.8,27c0-0.8-0.3-2-1.7-2
			c-1.2,0-1.8,1.1-1.9,2H60.8z"/>
		<path class="st3" d="M68.1,28l-1,3h-1.3l3.2-9.4h1.5l3.2,9.4h-1.3l-1-3H68.1z M71.2,27.1l-0.9-2.7c-0.2-0.6-0.4-1.2-0.5-1.7h0
			c-0.1,0.6-0.3,1.1-0.5,1.7l-0.9,2.7H71.2z"/>
	</g>
	<g>
		<path class="st4" d="M280.6,273.5l-3.1-9.4h1.3l1.5,4.7c0.4,1.3,0.8,2.4,1,3.5h0c0.3-1.1,0.7-2.3,1.1-3.5l1.6-4.7h1.3l-3.4,9.4
			H280.6z"/>
		<path class="st4" d="M289.6,273.5l-0.1-0.9h0c-0.4,0.5-1.1,1-2.1,1c-1.4,0-2.1-1-2.1-1.9c0-1.6,1.5-2.5,4.1-2.5V269
			c0-0.6-0.2-1.6-1.5-1.6c-0.6,0-1.3,0.2-1.8,0.5l-0.3-0.8c0.6-0.4,1.4-0.6,2.2-0.6c2.1,0,2.6,1.4,2.6,2.8v2.5c0,0.6,0,1.2,0.1,1.6
			H289.6z M289.4,270c-1.3,0-2.9,0.2-2.9,1.5c0,0.8,0.5,1.2,1.2,1.2c0.9,0,1.4-0.6,1.6-1.1c0-0.1,0.1-0.3,0.1-0.4V270z"/>
		<path class="st4" d="M292.6,268.8c0-0.8,0-1.5-0.1-2.1h1.1l0,1.3h0.1c0.3-0.9,1.1-1.5,1.9-1.5c0.1,0,0.2,0,0.4,0v1.2
			c-0.1,0-0.3,0-0.4,0c-0.9,0-1.5,0.7-1.7,1.6c0,0.2-0.1,0.4-0.1,0.6v3.6h-1.2V268.8z"/>
		<path class="st4" d="M298.6,264.8c0,0.4-0.3,0.8-0.8,0.8c-0.4,0-0.7-0.3-0.7-0.8c0-0.4,0.3-0.8,0.8-0.8
			C298.3,264,298.6,264.4,298.6,264.8z M297.3,273.5v-6.8h1.2v6.8H297.3z"/>
		<path class="st4" d="M304.3,273.5l-0.1-0.9h0c-0.4,0.5-1.1,1-2.1,1c-1.4,0-2.1-1-2.1-1.9c0-1.6,1.5-2.5,4.1-2.5V269
			c0-0.6-0.2-1.6-1.5-1.6c-0.6,0-1.3,0.2-1.8,0.5l-0.3-0.8c0.6-0.4,1.4-0.6,2.2-0.6c2.1,0,2.6,1.4,2.6,2.8v2.5c0,0.6,0,1.2,0.1,1.6
			H304.3z M304.1,270c-1.3,0-2.9,0.2-2.9,1.5c0,0.8,0.5,1.2,1.2,1.2c0.9,0,1.4-0.6,1.6-1.1c0-0.1,0.1-0.3,0.1-0.4V270z"/>
		<path class="st4" d="M307.2,273.5c0-0.5,0.1-1.1,0.1-1.8v-8.2h1.2v4.3h0c0.4-0.8,1.2-1.2,2.3-1.2c1.7,0,2.9,1.4,2.9,3.5
			c0,2.4-1.5,3.6-3,3.6c-1,0-1.8-0.4-2.3-1.3h0l-0.1,1.1H307.2z M308.5,270.8c0,0.2,0,0.3,0.1,0.4c0.2,0.9,1,1.4,1.8,1.4
			c1.3,0,2.1-1.1,2.1-2.6c0-1.4-0.7-2.5-2-2.5c-0.8,0-1.6,0.6-1.9,1.5c0,0.1-0.1,0.3-0.1,0.5V270.8z"/>
		<path class="st4" d="M315.2,263.6h1.2v9.9h-1.2V263.6z"/>
		<path class="st4" d="M319.2,270.3c0,1.7,1.1,2.4,2.3,2.4c0.9,0,1.4-0.2,1.9-0.4l0.2,0.9c-0.4,0.2-1.2,0.4-2.3,0.4
			c-2.1,0-3.3-1.4-3.3-3.4c0-2,1.2-3.7,3.2-3.7c2.2,0,2.8,1.9,2.8,3.2c0,0.3,0,0.4,0,0.6H319.2z M322.8,269.5c0-0.8-0.3-2-1.7-2
			c-1.2,0-1.8,1.1-1.9,2H322.8z"/>
		<path class="st4" d="M328.6,264.2c0.5-0.1,1.4-0.2,2.2-0.2c1.2,0,2,0.2,2.6,0.7c0.5,0.4,0.8,0.9,0.8,1.7c0,0.9-0.6,1.7-1.6,2.1v0
			c0.9,0.2,1.9,1,1.9,2.4c0,0.8-0.3,1.4-0.8,1.9c-0.7,0.6-1.7,0.9-3.3,0.9c-0.8,0-1.5-0.1-1.9-0.1V264.2z M329.8,268.1h1.1
			c1.3,0,2-0.7,2-1.6c0-1.1-0.8-1.5-2.1-1.5c-0.6,0-0.9,0-1.1,0.1V268.1z M329.8,272.6c0.2,0,0.6,0.1,1,0.1c1.3,0,2.4-0.5,2.4-1.8
			c0-1.3-1.1-1.8-2.4-1.8h-1V272.6z"/>
	</g>
	<g>
		<path class="st1" d="M32.5,249.4L32.5,249.4l-1.1,0.6l-0.2-0.7l1.4-0.8h0.7v6.5h-0.8V249.4z"/>
	</g>
	<g>
		<path class="st1" d="M62.5,279.7L62.5,279.7l-1.1,0.6l-0.2-0.7l1.4-0.8h0.7v6.5h-0.8V279.7z"/>
	</g>
	<g>
		<path class="st1" d="M77.9,285.4v-0.5l0.7-0.7c1.7-1.6,2.4-2.4,2.4-3.4c0-0.7-0.3-1.3-1.3-1.3c-0.6,0-1.1,0.3-1.4,0.5l-0.3-0.6
			c0.4-0.4,1.1-0.7,1.8-0.7c1.4,0,2,1,2,1.9c0,1.2-0.9,2.2-2.2,3.5l-0.5,0.5v0H82v0.7H77.9z"/>
	</g>
	<g>
		<path class="st1" d="M95.2,284.4c0.2,0.2,0.8,0.4,1.4,0.4c1.1,0,1.5-0.7,1.5-1.3c0-0.9-0.8-1.3-1.7-1.3H96v-0.7h0.5
			c0.6,0,1.4-0.3,1.4-1.1c0-0.5-0.3-1-1.1-1c-0.5,0-1,0.2-1.3,0.4l-0.2-0.6c0.3-0.2,1-0.5,1.7-0.5c1.3,0,1.9,0.8,1.9,1.5
			c0,0.7-0.4,1.2-1.2,1.5v0c0.8,0.2,1.4,0.8,1.4,1.7c0,1-0.8,1.9-2.4,1.9c-0.7,0-1.4-0.2-1.7-0.4L95.2,284.4z"/>
	</g>
	<g>
		<path class="st1" d="M115,285.4v-1.8h-3v-0.6l2.9-4.1h0.9v4h0.9v0.7h-0.9v1.8H115z M115,283v-2.2c0-0.3,0-0.7,0-1h0
			c-0.2,0.4-0.4,0.7-0.5,1l-1.6,2.2v0H115z"/>
	</g>
	<g>
		<path class="st1" d="M133.3,279.7h-2.5l-0.2,1.7c0.1,0,0.3,0,0.5,0c0.5,0,1,0.1,1.4,0.3c0.5,0.3,0.9,0.8,0.9,1.7
			c0,1.3-1,2.2-2.4,2.2c-0.7,0-1.3-0.2-1.6-0.4l0.2-0.7c0.3,0.2,0.8,0.4,1.4,0.4c0.8,0,1.5-0.5,1.5-1.4c0-0.8-0.6-1.4-1.9-1.4
			c-0.4,0-0.7,0-0.9,0.1l0.4-3.1h3.1V279.7z"/>
	</g>
	<g>
		<path class="st1" d="M150.4,279.5c-0.2,0-0.4,0-0.7,0c-1.4,0.2-2.1,1.2-2.3,2.3h0c0.3-0.4,0.8-0.7,1.6-0.7c1.1,0,2,0.8,2,2.1
			c0,1.2-0.8,2.3-2.2,2.3c-1.4,0-2.3-1.1-2.3-2.8c0-1.3,0.5-2.3,1.1-2.9c0.5-0.5,1.3-0.9,2.1-1c0.3,0,0.5,0,0.6,0V279.5z
			 M150.1,283.3c0-0.9-0.5-1.5-1.3-1.5c-0.5,0-1,0.3-1.3,0.8c-0.1,0.1-0.1,0.2-0.1,0.4c0,1.1,0.5,1.9,1.4,1.9
			C149.6,284.8,150.1,284.2,150.1,283.3z"/>
	</g>
	<g>
		<path class="st1" d="M168.3,278.9v0.6l-2.8,5.9h-0.9l2.8-5.7v0h-3.2v-0.7H168.3z"/>
	</g>
	<g>
		<path class="st1" d="M181,283.8c0-0.8,0.5-1.4,1.3-1.7l0,0c-0.7-0.3-1-0.9-1-1.5c0-1,0.9-1.7,2-1.7c1.3,0,1.9,0.8,1.9,1.6
			c0,0.5-0.3,1.1-1.1,1.5v0c0.8,0.3,1.3,0.9,1.3,1.7c0,1.1-1,1.9-2.2,1.9C181.8,285.5,181,284.7,181,283.8z M184.5,283.7
			c0-0.8-0.5-1.2-1.4-1.4c-0.8,0.2-1.2,0.7-1.2,1.3c0,0.7,0.5,1.2,1.3,1.2C183.9,284.9,184.5,284.4,184.5,283.7z M182,280.5
			c0,0.6,0.5,1,1.2,1.2c0.6-0.2,1-0.6,1-1.2c0-0.5-0.3-1.1-1.1-1.1C182.4,279.4,182,279.9,182,280.5z"/>
	</g>
	<g>
		<path class="st1" d="M198.9,284.8c0.2,0,0.4,0,0.7,0c0.5-0.1,1-0.3,1.4-0.6c0.4-0.4,0.7-1,0.9-1.7h0c-0.4,0.4-0.9,0.7-1.5,0.7
			c-1.2,0-1.9-0.9-1.9-2c0-1.2,0.9-2.3,2.2-2.3c1.3,0,2.1,1.1,2.1,2.7c0,1.4-0.5,2.4-1.1,3c-0.5,0.5-1.2,0.8-1.9,0.9
			c-0.3,0-0.6,0.1-0.8,0V284.8z M199.2,281.1c0,0.8,0.5,1.4,1.2,1.4c0.6,0,1-0.3,1.3-0.7c0.1-0.1,0.1-0.2,0.1-0.3c0-1.1-0.4-2-1.3-2
			C199.8,279.5,199.2,280.1,199.2,281.1z"/>
	</g>
	<g>
		<path class="st1" d="M215.1,279.7L215.1,279.7l-1.1,0.6l-0.2-0.7l1.4-0.8h0.8v6.5h-0.8V279.7z"/>
		<path class="st1" d="M222.6,282.1c0,2.2-0.8,3.4-2.3,3.4c-1.3,0-2.1-1.2-2.1-3.3c0-2.2,0.9-3.4,2.3-3.4
			C221.8,278.8,222.6,280,222.6,282.1z M219.1,282.2c0,1.7,0.5,2.6,1.3,2.6c0.9,0,1.3-1,1.3-2.7c0-1.6-0.4-2.6-1.3-2.6
			C219.6,279.5,219.1,280.4,219.1,282.2z"/>
	</g>
	<g>
		<path class="st1" d="M232.1,279.7L232.1,279.7l-1.1,0.6l-0.2-0.7l1.4-0.8h0.8v6.5h-0.8V279.7z"/>
		<path class="st1" d="M237.2,279.7L237.2,279.7l-1.2,0.6l-0.2-0.7l1.4-0.8h0.7v6.5h-0.8V279.7z"/>
	</g>
	<g>
		<path class="st1" d="M249.2,279.7L249.2,279.7l-1.1,0.6l-0.2-0.7l1.4-0.8h0.8v6.5h-0.8V279.7z"/>
		<path class="st1" d="M252.4,285.4v-0.5l0.7-0.7c1.7-1.6,2.4-2.4,2.4-3.4c0-0.7-0.3-1.3-1.3-1.3c-0.6,0-1.1,0.3-1.4,0.5l-0.3-0.6
			c0.5-0.4,1.1-0.7,1.8-0.7c1.4,0,2,1,2,1.9c0,1.2-0.9,2.2-2.2,3.5l-0.5,0.5v0h2.9v0.7H252.4z"/>
	</g>
	<g>
		<path class="st1" d="M30.6,237.9v-0.5l0.7-0.7c1.7-1.6,2.4-2.4,2.4-3.4c0-0.7-0.3-1.3-1.3-1.3c-0.6,0-1.1,0.3-1.4,0.5l-0.3-0.6
			c0.4-0.4,1.1-0.7,1.8-0.7c1.4,0,2,1,2,1.9c0,1.2-0.9,2.2-2.2,3.5l-0.5,0.5v0h2.9v0.7H30.6z"/>
	</g>
	<g>
		<path class="st1" d="M30.8,219.6c0.2,0.2,0.8,0.4,1.4,0.4c1.1,0,1.5-0.7,1.5-1.3c0-0.9-0.8-1.3-1.7-1.3h-0.5v-0.7h0.5
			c0.6,0,1.4-0.3,1.4-1.1c0-0.5-0.3-1-1.1-1c-0.5,0-1,0.2-1.3,0.4l-0.2-0.6c0.3-0.2,1-0.5,1.7-0.5c1.3,0,1.9,0.8,1.9,1.5
			c0,0.7-0.4,1.2-1.2,1.5v0c0.8,0.2,1.4,0.8,1.4,1.7c0,1-0.8,1.9-2.4,1.9c-0.7,0-1.4-0.2-1.7-0.4L30.8,219.6z"/>
	</g>
	<g>
		<path class="st1" d="M33.3,203.1v-1.8h-3v-0.6l2.9-4.1h0.9v4h0.9v0.7h-0.9v1.8H33.3z M33.3,200.6v-2.2c0-0.3,0-0.7,0-1h0
			c-0.2,0.4-0.4,0.7-0.5,1l-1.6,2.2v0H33.3z"/>
	</g>
	<g>
		<path class="st1" d="M34.5,179.8H32l-0.2,1.7c0.1,0,0.3,0,0.5,0c0.5,0,1,0.1,1.4,0.3c0.5,0.3,0.9,0.8,0.9,1.7c0,1.3-1,2.2-2.4,2.2
			c-0.7,0-1.3-0.2-1.6-0.4l0.2-0.7c0.3,0.2,0.8,0.4,1.4,0.4c0.8,0,1.5-0.5,1.5-1.4c0-0.8-0.6-1.4-1.9-1.4c-0.4,0-0.7,0-0.9,0.1
			l0.4-3.1h3.1V179.8z"/>
	</g>
	<g>
		<path class="st1" d="M34.3,163.4c-0.2,0-0.4,0-0.7,0c-1.4,0.2-2.1,1.2-2.3,2.3h0c0.3-0.4,0.8-0.7,1.6-0.7c1.1,0,2,0.8,2,2.1
			c0,1.2-0.8,2.3-2.2,2.3c-1.4,0-2.3-1.1-2.3-2.8c0-1.3,0.5-2.3,1.1-2.9c0.5-0.5,1.3-0.9,2.1-1c0.3,0,0.5,0,0.6,0V163.4z
			 M34.1,167.1c0-0.9-0.5-1.5-1.3-1.5c-0.5,0-1,0.3-1.3,0.8c-0.1,0.1-0.1,0.2-0.1,0.4c0,1.1,0.5,1.9,1.4,1.9
			C33.6,168.7,34.1,168.1,34.1,167.1z"/>
	</g>
	<g>
		<path class="st1" d="M34.8,145.6v0.6l-2.8,5.9h-0.9l2.8-5.7v0h-3.2v-0.7H34.8z"/>
	</g>
	<g>
		<path class="st1" d="M30.5,132.9c0-0.8,0.5-1.4,1.3-1.7l0,0c-0.7-0.3-1-0.9-1-1.5c0-1,0.9-1.7,2-1.7c1.3,0,1.9,0.8,1.9,1.6
			c0,0.5-0.3,1.1-1.1,1.5v0c0.8,0.3,1.3,0.9,1.3,1.7c0,1.1-1,1.9-2.2,1.9C31.4,134.7,30.5,133.9,30.5,132.9z M34,132.9
			c0-0.8-0.5-1.2-1.4-1.4c-0.8,0.2-1.2,0.7-1.2,1.3c0,0.7,0.5,1.2,1.3,1.2C33.5,134.1,34,133.6,34,132.9z M31.6,129.6
			c0,0.6,0.5,1,1.2,1.2c0.6-0.2,1-0.6,1-1.2c0-0.5-0.3-1.1-1.1-1.1C32,128.6,31.6,129.1,31.6,129.6z"/>
	</g>
	<g>
		<path class="st1" d="M31.1,117c0.2,0,0.4,0,0.7,0c0.5-0.1,1-0.3,1.4-0.6c0.4-0.4,0.7-1,0.9-1.7h0c-0.4,0.4-0.9,0.7-1.5,0.7
			c-1.2,0-1.9-0.9-1.9-2c0-1.2,0.9-2.3,2.2-2.3c1.3,0,2.1,1.1,2.1,2.7c0,1.4-0.5,2.4-1.1,3c-0.5,0.5-1.2,0.8-1.9,0.9
			c-0.3,0-0.6,0.1-0.8,0V117z M31.4,113.2c0,0.8,0.5,1.4,1.2,1.4c0.6,0,1-0.3,1.3-0.7c0-0.1,0.1-0.2,0.1-0.3c0-1.1-0.4-2-1.3-2
			C32,111.6,31.4,112.3,31.4,113.2z"/>
	</g>
	<g>
		<path class="st1" d="M28.5,94.4L28.5,94.4L27.4,95l-0.2-0.7l1.4-0.8h0.7v6.5h-0.8V94.4z"/>
		<path class="st1" d="M36.1,96.8c0,2.2-0.8,3.4-2.3,3.4c-1.3,0-2.1-1.2-2.1-3.3c0-2.2,0.9-3.4,2.3-3.4
			C35.3,93.5,36.1,94.7,36.1,96.8z M32.5,96.9c0,1.7,0.5,2.6,1.3,2.6c0.9,0,1.3-1,1.3-2.7c0-1.6-0.4-2.6-1.3-2.6
			C33.1,94.2,32.5,95.1,32.5,96.9z"/>
	</g>
	<g>
		<path class="st1" d="M28.5,77.2L28.5,77.2l-1.1,0.6l-0.2-0.7l1.4-0.8h0.7v6.5h-0.8V77.2z"/>
		<path class="st1" d="M33.7,77.2L33.7,77.2l-1.1,0.6l-0.2-0.7l1.4-0.8h0.7v6.5h-0.8V77.2z"/>
	</g>
	<g>
		<path class="st1" d="M28.5,59.9L28.5,59.9l-1.1,0.6l-0.2-0.7l1.4-0.8h0.7v6.5h-0.8V59.9z"/>
		<path class="st1" d="M31.7,65.6V65l0.7-0.7c1.7-1.6,2.4-2.4,2.4-3.4c0-0.7-0.3-1.3-1.3-1.3c-0.6,0-1.1,0.3-1.4,0.5l-0.3-0.6
			c0.4-0.4,1.1-0.7,1.8-0.7c1.4,0,2,1,2,1.9c0,1.2-0.9,2.2-2.2,3.5L33,64.8v0h2.9v0.7H31.7z"/>
	</g>
	<g>
		<path class="st1" d="M40.9,275.9c0,2.2-0.8,3.4-2.3,3.4c-1.3,0-2.1-1.2-2.1-3.3c0-2.2,0.9-3.4,2.3-3.4
			C40.2,272.6,40.9,273.9,40.9,275.9z M37.4,276c0,1.7,0.5,2.6,1.3,2.6c0.9,0,1.3-1,1.3-2.7c0-1.6-0.4-2.6-1.3-2.6
			C38,273.3,37.4,274.3,37.4,276z"/>
	</g>
	<g>
		<g>
			<polyline class="st5" points="22.5,352.6 22.5,433.5 103.4,433.5 			"/>
			<g>
				<polygon class="st1" points="18.4,355.9 19.1,356.6 22.5,353 25.9,356.6 26.6,355.9 22.5,351.5 				"/>
			</g>
			<g>
				<polygon class="st1" points="100.1,437.6 99.4,436.9 103,433.5 99.4,430.1 100.1,429.4 104.5,433.5 				"/>
			</g>
		</g>
	</g>
	<g>
		<g>
			<polyline class="st5" points="136,352.6 136,433.5 216.9,433.5 			"/>
			<g>
				<polygon class="st1" points="131.9,355.9 132.6,356.6 136,353 139.4,356.6 140.1,355.9 136,351.5 				"/>
			</g>
			<g>
				<polygon class="st1" points="213.6,437.6 212.9,436.9 216.5,433.5 212.9,430.1 213.6,429.4 218,433.5 				"/>
			</g>
		</g>
	</g>
	<g>
		<g>
			<polyline class="st5" points="249.5,352.6 249.5,433.5 330.4,433.5 			"/>
			<g>
				<polygon class="st1" points="245.4,355.9 246.1,356.6 249.5,353 252.9,356.6 253.6,355.9 249.5,351.5 				"/>
			</g>
			<g>
				<polygon class="st1" points="327.1,437.6 326.4,436.9 330,433.5 326.4,430.1 327.1,429.4 331.5,433.5 				"/>
			</g>
		</g>
	</g>
	<g>
		<g>
			<polyline class="st5" points="22.5,479.6 22.5,560.5 103.4,560.5 			"/>
			<g>
				<polygon class="st1" points="18.4,482.9 19.1,483.6 22.5,480 25.9,483.6 26.6,482.9 22.5,478.5 				"/>
			</g>
			<g>
				<polygon class="st1" points="100.1,564.6 99.4,563.9 103,560.5 99.4,557.1 100.1,556.4 104.5,560.5 				"/>
			</g>
		</g>
	</g>
	<g>
		<g>
			<polyline class="st5" points="138,479.6 138,560.5 218.9,560.5 			"/>
			<g>
				<polygon class="st1" points="133.9,482.9 134.6,483.6 138,480 141.4,483.6 142.1,482.9 138,478.5 				"/>
			</g>
			<g>
				<polygon class="st1" points="215.6,564.6 214.9,563.9 218.5,560.5 214.9,557.1 215.6,556.4 220,560.5 				"/>
			</g>
		</g>
	</g>
	<g>
		<g>
			<polyline class="st5" points="249.5,479.6 249.5,560.5 330.4,560.5 			"/>
			<g>
				<polygon class="st1" points="245.4,482.9 246.1,483.6 249.5,480 252.9,483.6 253.6,482.9 249.5,478.5 				"/>
			</g>
			<g>
				<polygon class="st1" points="327.1,564.6 326.4,563.9 330,560.5 326.4,557.1 327.1,556.4 331.5,560.5 				"/>
			</g>
		</g>
	</g>
	<g>
		<g>
			<polyline class="st5" points="22.5,658.6 22.5,739.5 103.4,739.5 			"/>
			<g>
				<polygon class="st1" points="18.4,661.9 19.1,662.6 22.5,659 25.9,662.6 26.6,661.9 22.5,657.5 				"/>
			</g>
			<g>
				<polygon class="st1" points="100.1,743.6 99.4,742.9 103,739.5 99.4,736.1 100.1,735.4 104.5,739.5 				"/>
			</g>
		</g>
	</g>
	<g>
		<g>
			<polyline class="st5" points="136,658.6 136,739.5 216.9,739.5 			"/>
			<g>
				<polygon class="st1" points="131.9,661.9 132.6,662.6 136,659 139.4,662.6 140.1,661.9 136,657.5 				"/>
			</g>
			<g>
				<polygon class="st1" points="213.6,743.6 212.9,742.9 216.5,739.5 212.9,736.1 213.6,735.4 218,739.5 				"/>
			</g>
		</g>
	</g>
	<g>
		<g>
			<polyline class="st5" points="249.5,658.6 249.5,739.5 330.4,739.5 			"/>
			<g>
				<polygon class="st1" points="245.4,661.9 246.1,662.6 249.5,659 252.9,662.6 253.6,661.9 249.5,657.5 				"/>
			</g>
			<g>
				<polygon class="st1" points="327.1,743.6 326.4,742.9 330,739.5 326.4,736.1 327.1,735.4 331.5,739.5 				"/>
			</g>
		</g>
	</g>
	<g>
		<g>
			<path class="st6" d="M22.6,441.7c0.6-0.1,1.4-0.2,2.3-0.2c1.2,0,2.1,0.3,2.6,0.8c0.5,0.4,0.8,1.1,0.8,2c0,0.9-0.3,1.5-0.7,2
				c-0.6,0.7-1.7,1-2.9,1c-0.4,0-0.7,0-1-0.1v3.8h-1.2V441.7z M23.8,446.2c0.3,0.1,0.6,0.1,1,0.1c1.5,0,2.4-0.7,2.4-2
				c0-1.2-0.9-1.8-2.2-1.8c-0.5,0-0.9,0-1.1,0.1V446.2z"/>
			<path class="st6" d="M36.1,447.6c0,2.5-1.7,3.6-3.4,3.6c-1.8,0-3.2-1.3-3.2-3.5c0-2.3,1.5-3.6,3.4-3.6
				C34.8,444.1,36.1,445.5,36.1,447.6z M30.7,447.6c0,1.5,0.9,2.6,2.1,2.6c1.2,0,2.1-1.1,2.1-2.6c0-1.1-0.6-2.6-2-2.6
				C31.4,445,30.7,446.3,30.7,447.6z"/>
			<path class="st6" d="M37.8,449.7c0.4,0.2,1,0.5,1.6,0.5c0.9,0,1.3-0.4,1.3-1c0-0.6-0.4-0.9-1.3-1.2c-1.2-0.4-1.8-1.1-1.8-1.9
				c0-1.1,0.9-2,2.3-2c0.7,0,1.3,0.2,1.7,0.4l-0.3,0.9c-0.3-0.2-0.8-0.4-1.4-0.4c-0.7,0-1.1,0.4-1.1,0.9c0,0.6,0.4,0.8,1.3,1.1
				c1.2,0.4,1.8,1,1.8,2c0,1.2-0.9,2-2.5,2c-0.7,0-1.4-0.2-1.9-0.5L37.8,449.7z"/>
			<path class="st6" d="M45.3,442.3c0,0.4-0.3,0.8-0.8,0.8c-0.4,0-0.7-0.3-0.7-0.8c0-0.4,0.3-0.8,0.8-0.8
				C45,441.5,45.3,441.9,45.3,442.3z M43.9,451v-6.8h1.2v6.8H43.9z"/>
			<path class="st6" d="M49,442.3v1.9h1.8v0.9H49v3.7c0,0.8,0.2,1.3,0.9,1.3c0.3,0,0.6,0,0.7-0.1l0.1,0.9c-0.2,0.1-0.6,0.2-1.1,0.2
				c-0.6,0-1-0.2-1.3-0.5c-0.4-0.4-0.5-1-0.5-1.8v-3.7h-1.1v-0.9h1.1v-1.6L49,442.3z"/>
			<path class="st6" d="M53.9,442.3c0,0.4-0.3,0.8-0.8,0.8c-0.4,0-0.7-0.3-0.7-0.8c0-0.4,0.3-0.8,0.8-0.8
				C53.6,441.5,53.9,441.9,53.9,442.3z M52.5,451v-6.8h1.2v6.8H52.5z"/>
			<path class="st6" d="M56.6,444.2l1.3,3.8c0.2,0.6,0.4,1.2,0.5,1.7h0c0.2-0.6,0.4-1.1,0.6-1.7l1.3-3.8h1.3L59,451h-1.2l-2.6-6.8
				H56.6z"/>
			<path class="st6" d="M69.2,447.6c0,2.5-1.7,3.6-3.4,3.6c-1.8,0-3.2-1.3-3.2-3.5c0-2.3,1.5-3.6,3.4-3.6
				C67.9,444.1,69.2,445.5,69.2,447.6z M63.8,447.6c0,1.5,0.9,2.6,2.1,2.6c1.2,0,2.1-1.1,2.1-2.6c0-1.1-0.6-2.6-2-2.6
				C64.5,445,63.8,446.3,63.8,447.6z"/>
		</g>
	</g>
	<g>
		<g>
			<path class="st6" d="M23.6,570.6h1.2v8.4h4v1h-5.3V570.6z"/>
			<path class="st6" d="M31.9,571.3c0,0.4-0.3,0.8-0.8,0.8c-0.4,0-0.7-0.3-0.7-0.8c0-0.4,0.3-0.8,0.8-0.8
				C31.6,570.5,31.9,570.9,31.9,571.3z M30.5,580v-6.8h1.2v6.8H30.5z"/>
			<path class="st6" d="M34.1,575.1c0-0.7,0-1.3-0.1-1.8h1.1l0.1,1.1h0c0.3-0.6,1.1-1.3,2.2-1.3c0.9,0,2.4,0.6,2.4,2.9v4h-1.2v-3.9
				c0-1.1-0.4-2-1.6-2c-0.8,0-1.4,0.6-1.7,1.3c-0.1,0.2-0.1,0.4-0.1,0.6v4.1h-1.2V575.1z"/>
			<path class="st6" d="M42.9,576.8c0,1.7,1.1,2.4,2.3,2.4c0.9,0,1.4-0.2,1.9-0.3l0.2,0.9c-0.4,0.2-1.2,0.4-2.3,0.4
				c-2.1,0-3.3-1.4-3.3-3.4s1.2-3.7,3.2-3.7c2.2,0,2.8,1.9,2.8,3.2c0,0.3,0,0.4,0,0.6H42.9z M46.5,576c0-0.8-0.3-2-1.7-2
				c-1.2,0-1.8,1.1-1.9,2H46.5z"/>
			<path class="st6" d="M53.3,580l-0.1-0.9h0c-0.4,0.5-1.1,1-2.1,1c-1.4,0-2.1-1-2.1-1.9c0-1.6,1.5-2.5,4.1-2.5v-0.1
				c0-0.6-0.2-1.6-1.5-1.6c-0.6,0-1.3,0.2-1.8,0.5l-0.3-0.8c0.6-0.4,1.4-0.6,2.2-0.6c2.1,0,2.6,1.4,2.6,2.8v2.5c0,0.6,0,1.2,0.1,1.6
				H53.3z M53.2,576.5c-1.3,0-2.9,0.2-2.9,1.5c0,0.8,0.5,1.2,1.2,1.2c0.9,0,1.4-0.6,1.6-1.1c0-0.1,0.1-0.3,0.1-0.4V576.5z"/>
			<path class="st6" d="M56.7,570.1h1.2v9.9h-1.2V570.1z"/>
		</g>
	</g>
	<g>
		<g>
			<path class="st6" d="M22.6,749.6h5.1v1h-3.9v3.1h3.6v1h-3.6v4.3h-1.2V749.6z"/>
			<path class="st6" d="M34.9,757.2c0,0.7,0,1.3,0.1,1.8h-1.1l-0.1-1.1h0c-0.3,0.5-1,1.3-2.2,1.3c-1.1,0-2.3-0.6-2.3-3v-4h1.2v3.8
				c0,1.3,0.4,2.2,1.5,2.2c0.8,0,1.4-0.6,1.6-1.1c0.1-0.2,0.1-0.4,0.1-0.6v-4.2h1.2V757.2z"/>
			<path class="st6" d="M38,755.8c0,1.7,1.1,2.4,2.3,2.4c0.9,0,1.4-0.2,1.9-0.3l0.2,0.9c-0.4,0.2-1.2,0.4-2.3,0.4
				c-2.1,0-3.3-1.4-3.3-3.4s1.2-3.7,3.2-3.7c2.2,0,2.8,1.9,2.8,3.2c0,0.3,0,0.4,0,0.6H38z M41.6,755c0-0.8-0.3-2-1.7-2
				c-1.2,0-1.8,1.1-1.9,2H41.6z"/>
			<path class="st6" d="M44.6,754.3c0-0.8,0-1.5-0.1-2.1h1.1l0,1.3h0.1c0.3-0.9,1.1-1.5,1.9-1.5c0.1,0,0.2,0,0.4,0v1.2
				c-0.1,0-0.3,0-0.4,0c-0.9,0-1.5,0.7-1.7,1.6c0,0.2-0.1,0.4-0.1,0.6v3.6h-1.2V754.3z"/>
			<path class="st6" d="M51.4,750.3v1.9h1.8v0.9h-1.8v3.7c0,0.8,0.2,1.3,0.9,1.3c0.3,0,0.6,0,0.7-0.1l0.1,0.9
				c-0.2,0.1-0.6,0.2-1.1,0.2c-0.6,0-1-0.2-1.3-0.5c-0.4-0.4-0.5-1-0.5-1.8v-3.7h-1.1v-0.9h1.1v-1.6L51.4,750.3z"/>
			<path class="st6" d="M55.5,755.8c0,1.7,1.1,2.4,2.3,2.4c0.9,0,1.4-0.2,1.9-0.3l0.2,0.9c-0.4,0.2-1.2,0.4-2.3,0.4
				c-2.1,0-3.3-1.4-3.3-3.4s1.2-3.7,3.2-3.7c2.2,0,2.8,1.9,2.8,3.2c0,0.3,0,0.4,0,0.6H55.5z M59.1,755c0-0.8-0.3-2-1.7-2
				c-1.2,0-1.8,1.1-1.9,2H59.1z"/>
		</g>
	</g>
	<g>
		<g>
			<path class="st6" d="M136.1,749.7c0.7-0.1,1.6-0.2,2.6-0.2c1.8,0,3,0.4,3.8,1.2c0.8,0.8,1.3,1.9,1.3,3.4c0,1.5-0.5,2.8-1.4,3.7
				c-0.9,0.9-2.3,1.4-4.2,1.4c-0.9,0-1.6,0-2.2-0.1V749.7z M137.3,758c0.3,0.1,0.8,0.1,1.2,0.1c2.6,0,4-1.5,4-4
				c0-2.2-1.2-3.6-3.8-3.6c-0.6,0-1.1,0.1-1.4,0.1V758z"/>
			<path class="st6" d="M146.4,755.8c0,1.7,1.1,2.4,2.3,2.4c0.9,0,1.4-0.2,1.9-0.3l0.2,0.9c-0.4,0.2-1.2,0.4-2.3,0.4
				c-2.1,0-3.3-1.4-3.3-3.4s1.2-3.7,3.2-3.7c2.2,0,2.8,1.9,2.8,3.2c0,0.3,0,0.4,0,0.6H146.4z M150.1,755c0-0.8-0.3-2-1.7-2
				c-1.2,0-1.8,1.1-1.9,2H150.1z M150.3,749.3l-1.7,2h-0.9l1.2-2H150.3z"/>
			<path class="st6" d="M153.1,759c0-0.5,0.1-1.1,0.1-1.8v-8.2h1.2v4.3h0c0.4-0.8,1.2-1.2,2.3-1.2c1.7,0,2.9,1.4,2.9,3.5
				c0,2.4-1.5,3.6-3,3.6c-1,0-1.8-0.4-2.3-1.3h0l-0.1,1.1H153.1z M154.3,756.3c0,0.2,0,0.3,0.1,0.4c0.2,0.9,1,1.4,1.8,1.4
				c1.3,0,2.1-1.1,2.1-2.6c0-1.4-0.7-2.5-2-2.5c-0.8,0-1.6,0.6-1.9,1.5c0,0.1-0.1,0.3-0.1,0.5V756.3z"/>
			<path class="st6" d="M162.8,750.3c0,0.4-0.3,0.8-0.8,0.8c-0.4,0-0.7-0.3-0.7-0.8c0-0.4,0.3-0.8,0.8-0.8
				C162.5,749.5,162.8,749.9,162.8,750.3z M161.4,759v-6.8h1.2v6.8H161.4z"/>
			<path class="st6" d="M165.1,749.1h1.2v9.9h-1.2V749.1z"/>
		</g>
	</g>
	<g>
		<g>
			<path class="st6" d="M249.6,759v-9.4h1.3l3,4.8c0.7,1.1,1.2,2.1,1.7,3.1l0,0c-0.1-1.3-0.1-2.4-0.1-3.9v-4h1.1v9.4h-1.2l-3-4.8
				c-0.7-1.1-1.3-2.1-1.8-3.2l0,0c0.1,1.2,0.1,2.3,0.1,3.9v4H249.6z"/>
			<path class="st6" d="M260.6,750.3c0,0.4-0.3,0.8-0.8,0.8c-0.4,0-0.7-0.3-0.7-0.8c0-0.4,0.3-0.8,0.8-0.8
				C260.3,749.5,260.6,749.9,260.6,750.3z M259.2,759v-6.8h1.2v6.8H259.2z"/>
			<path class="st6" d="M262.8,754.1c0-0.7,0-1.3-0.1-1.8h1.1l0.1,1.1h0c0.3-0.6,1.1-1.3,2.2-1.3c0.9,0,2.4,0.6,2.4,2.9v4h-1.2v-3.9
				c0-1.1-0.4-2-1.6-2c-0.8,0-1.4,0.6-1.7,1.3c-0.1,0.2-0.1,0.4-0.1,0.6v4.1h-1.2V754.1z"/>
			<path class="st6" d="M276.8,752.2c0,0.5-0.1,1-0.1,1.9v3.9c0,1.6-0.3,2.5-1,3.1c-0.7,0.6-1.6,0.8-2.5,0.8c-0.8,0-1.7-0.2-2.3-0.6
				l0.3-0.9c0.4,0.3,1.1,0.5,2,0.5c1.3,0,2.2-0.7,2.2-2.4v-0.8h0c-0.4,0.6-1.1,1.1-2.2,1.1c-1.7,0-2.9-1.4-2.9-3.3
				c0-2.3,1.5-3.6,3.1-3.6c1.2,0,1.8,0.6,2.1,1.2h0l0.1-1H276.8z M275.5,754.9c0-0.2,0-0.4-0.1-0.6c-0.2-0.7-0.8-1.3-1.7-1.3
				c-1.2,0-2,1-2,2.6c0,1.3,0.7,2.4,2,2.4c0.8,0,1.4-0.5,1.7-1.3c0.1-0.2,0.1-0.4,0.1-0.7V754.9z"/>
			<path class="st6" d="M284.8,757.2c0,0.7,0,1.3,0.1,1.8h-1.1l-0.1-1.1h0c-0.3,0.5-1,1.3-2.2,1.3c-1.1,0-2.3-0.6-2.3-3v-4h1.2v3.8
				c0,1.3,0.4,2.2,1.5,2.2c0.8,0,1.4-0.6,1.6-1.1c0.1-0.2,0.1-0.4,0.1-0.6v-4.2h1.2V757.2z"/>
			<path class="st6" d="M287.2,754.1c0-0.7,0-1.3-0.1-1.8h1.1l0.1,1.1h0c0.3-0.6,1.1-1.3,2.2-1.3c0.9,0,2.4,0.6,2.4,2.9v4h-1.2v-3.9
				c0-1.1-0.4-2-1.6-2c-0.8,0-1.4,0.6-1.7,1.3c-0.1,0.2-0.1,0.4-0.1,0.6v4.1h-1.2V754.1z"/>
			<path class="st6" d="M299.1,759l-0.1-0.9h0c-0.4,0.5-1.1,1-2.1,1c-1.4,0-2.1-1-2.1-1.9c0-1.6,1.5-2.5,4.1-2.5v-0.1
				c0-0.6-0.2-1.6-1.5-1.6c-0.6,0-1.3,0.2-1.8,0.5l-0.3-0.8c0.6-0.4,1.4-0.6,2.2-0.6c2.1,0,2.6,1.4,2.6,2.8v2.5c0,0.6,0,1.2,0.1,1.6
				H299.1z M298.9,755.5c-1.3,0-2.9,0.2-2.9,1.5c0,0.8,0.5,1.2,1.2,1.2c0.9,0,1.4-0.6,1.6-1.1c0-0.1,0.1-0.3,0.1-0.4V755.5z"/>
		</g>
	</g>
	<g>
		<g>
			<path class="st6" d="M142,575.6h-3.7v3.4h4.1v1h-5.3v-9.4h5.1v1h-3.9v3h3.7V575.6z"/>
			<path class="st6" d="M144.8,573.2l1,1.5c0.3,0.4,0.5,0.7,0.7,1.1h0c0.2-0.4,0.4-0.8,0.7-1.1l1-1.4h1.3l-2.3,3.3l2.4,3.5h-1.4
				l-1-1.5c-0.3-0.4-0.5-0.8-0.7-1.2h0c-0.2,0.4-0.5,0.8-0.7,1.2l-1,1.5h-1.4l2.4-3.5l-2.3-3.3H144.8z"/>
			<path class="st6" d="M151.1,575.4c0-0.9,0-1.6-0.1-2.2h1.1l0.1,1.2h0c0.5-0.8,1.3-1.3,2.4-1.3c1.6,0,2.9,1.4,2.9,3.4
				c0,2.4-1.5,3.6-3.1,3.6c-0.9,0-1.7-0.4-2.1-1.1h0v3.7h-1.2V575.4z M152.3,577.2c0,0.2,0,0.4,0.1,0.5c0.2,0.9,1,1.4,1.8,1.4
				c1.3,0,2.1-1.1,2.1-2.6c0-1.4-0.7-2.5-2-2.5c-0.8,0-1.6,0.6-1.9,1.5c0,0.2-0.1,0.3-0.1,0.5V577.2z"/>
			<path class="st6" d="M165.5,576.6c0,2.5-1.7,3.6-3.4,3.6c-1.8,0-3.2-1.3-3.2-3.5c0-2.3,1.5-3.6,3.4-3.6
				C164.2,573.1,165.5,574.5,165.5,576.6z M160.2,576.6c0,1.5,0.9,2.6,2.1,2.6c1.2,0,2.1-1.1,2.1-2.6c0-1.1-0.6-2.6-2-2.6
				C160.8,574,160.2,575.3,160.2,576.6z"/>
			<path class="st6" d="M167.4,575.1c0-0.7,0-1.3-0.1-1.8h1.1l0.1,1.1h0c0.3-0.6,1.1-1.3,2.2-1.3c0.9,0,2.4,0.6,2.4,2.9v4H172v-3.9
				c0-1.1-0.4-2-1.6-2c-0.8,0-1.4,0.6-1.7,1.3c-0.1,0.2-0.1,0.4-0.1,0.6v4.1h-1.2V575.1z"/>
			<path class="st6" d="M176.2,576.8c0,1.7,1.1,2.4,2.3,2.4c0.9,0,1.4-0.2,1.9-0.3l0.2,0.9c-0.4,0.2-1.2,0.4-2.3,0.4
				c-2.1,0-3.3-1.4-3.3-3.4s1.2-3.7,3.2-3.7c2.2,0,2.8,1.9,2.8,3.2c0,0.3,0,0.4,0,0.6H176.2z M179.9,576c0-0.8-0.3-2-1.7-2
				c-1.2,0-1.8,1.1-1.9,2H179.9z"/>
			<path class="st6" d="M182.9,575.1c0-0.7,0-1.3-0.1-1.8h1.1l0.1,1.1h0c0.3-0.6,1.1-1.3,2.2-1.3c0.9,0,2.4,0.6,2.4,2.9v4h-1.2v-3.9
				c0-1.1-0.4-2-1.6-2c-0.8,0-1.4,0.6-1.7,1.3c-0.1,0.2-0.1,0.4-0.1,0.6v4.1h-1.2V575.1z"/>
			<path class="st6" d="M195.9,579.7c-0.3,0.2-1,0.4-1.9,0.4c-2,0-3.4-1.4-3.4-3.5c0-2.1,1.4-3.6,3.6-3.6c0.7,0,1.4,0.2,1.7,0.4
				l-0.3,1c-0.3-0.2-0.8-0.3-1.4-0.3c-1.6,0-2.4,1.1-2.4,2.6c0,1.6,1,2.5,2.4,2.5c0.7,0,1.2-0.2,1.5-0.3L195.9,579.7z"/>
			<path class="st6" d="M199,571.3c0,0.4-0.3,0.8-0.8,0.8c-0.4,0-0.7-0.3-0.7-0.8c0-0.4,0.3-0.8,0.8-0.8
				C198.7,570.5,199,570.9,199,571.3z M197.7,580v-6.8h1.2v6.8H197.7z"/>
			<path class="st6" d="M205,580l-0.1-0.9h0c-0.4,0.5-1.1,1-2.1,1c-1.4,0-2.1-1-2.1-1.9c0-1.6,1.5-2.5,4.1-2.5v-0.1
				c0-0.6-0.2-1.6-1.5-1.6c-0.6,0-1.3,0.2-1.8,0.5l-0.3-0.8c0.6-0.4,1.4-0.6,2.2-0.6c2.1,0,2.6,1.4,2.6,2.8v2.5c0,0.6,0,1.2,0.1,1.6
				H205z M204.9,576.5c-1.3,0-2.9,0.2-2.9,1.5c0,0.8,0.5,1.2,1.2,1.2c0.9,0,1.4-0.6,1.6-1.1c0-0.1,0.1-0.3,0.1-0.4V576.5z"/>
			<path class="st6" d="M208.4,570.1h1.2v9.9h-1.2V570.1z"/>
		</g>
	</g>
	<g>
		<g>
			<path class="st6" d="M248.6,570.6h5.1v1h-3.9v3.1h3.6v1h-3.6v4.3h-1.2V570.6z"/>
			<path class="st6" d="M261.4,576.6c0,2.5-1.7,3.6-3.4,3.6c-1.8,0-3.2-1.3-3.2-3.5c0-2.3,1.5-3.6,3.4-3.6
				C260.1,573.1,261.4,574.5,261.4,576.6z M256,576.6c0,1.5,0.9,2.6,2.1,2.6c1.2,0,2.1-1.1,2.1-2.6c0-1.1-0.6-2.6-2-2.6
				S256,575.3,256,576.6z"/>
			<path class="st6" d="M263.3,575.3c0-0.8,0-1.5-0.1-2.1h1.1l0,1.3h0.1c0.3-0.9,1.1-1.5,1.9-1.5c0.1,0,0.2,0,0.4,0v1.2
				c-0.1,0-0.3,0-0.4,0c-0.9,0-1.5,0.7-1.7,1.6c0,0.2-0.1,0.4-0.1,0.6v3.6h-1.2V575.3z"/>
			<path class="st6" d="M268.3,575.1c0-0.7,0-1.3-0.1-1.8h1.1l0.1,1.1h0c0.4-0.6,1-1.2,2.1-1.2c0.9,0,1.6,0.6,1.9,1.4h0
				c0.2-0.4,0.5-0.7,0.8-0.9c0.4-0.3,0.9-0.5,1.5-0.5c0.9,0,2.2,0.6,2.2,2.9v4h-1.2v-3.8c0-1.3-0.5-2.1-1.5-2.1
				c-0.7,0-1.2,0.5-1.5,1.1c-0.1,0.2-0.1,0.4-0.1,0.6v4.2h-1.2v-4.1c0-1.1-0.5-1.9-1.4-1.9c-0.8,0-1.3,0.6-1.5,1.2
				c-0.1,0.2-0.1,0.4-0.1,0.6v4.1h-1.2V575.1z"/>
			<path class="st6" d="M284.1,580l-0.1-0.9h0c-0.4,0.5-1.1,1-2.1,1c-1.4,0-2.1-1-2.1-1.9c0-1.6,1.5-2.5,4.1-2.5v-0.1
				c0-0.6-0.2-1.6-1.5-1.6c-0.6,0-1.3,0.2-1.8,0.5l-0.3-0.8c0.6-0.4,1.4-0.6,2.2-0.6c2.1,0,2.6,1.4,2.6,2.8v2.5c0,0.6,0,1.2,0.1,1.6
				H284.1z M283.9,576.5c-1.3,0-2.9,0.2-2.9,1.5c0,0.8,0.5,1.2,1.2,1.2c0.9,0,1.4-0.6,1.6-1.1c0-0.1,0.1-0.3,0.1-0.4V576.5z"/>
			<path class="st6" d="M296.6,570.1v8.2c0,0.6,0,1.3,0.1,1.8h-1.1l-0.1-1.2h0c-0.4,0.8-1.2,1.3-2.3,1.3c-1.6,0-2.9-1.4-2.9-3.4
				c0-2.3,1.4-3.6,3-3.6c1,0,1.7,0.5,2,1h0v-4H296.6z M295.3,576c0-0.2,0-0.4-0.1-0.5c-0.2-0.8-0.9-1.4-1.8-1.4c-1.3,0-2,1.1-2,2.6
				c0,1.4,0.7,2.5,2,2.5c0.8,0,1.6-0.5,1.8-1.5c0-0.2,0.1-0.3,0.1-0.5V576z"/>
			<path class="st6" d="M299.7,576.8c0,1.7,1.1,2.4,2.3,2.4c0.9,0,1.4-0.2,1.9-0.3l0.2,0.9c-0.4,0.2-1.2,0.4-2.3,0.4
				c-2.1,0-3.3-1.4-3.3-3.4s1.2-3.7,3.2-3.7c2.2,0,2.8,1.9,2.8,3.2c0,0.3,0,0.4,0,0.6H299.7z M303.3,576c0-0.8-0.3-2-1.7-2
				c-1.2,0-1.8,1.1-1.9,2H303.3z"/>
			<path class="st6" d="M310.9,570.6v5.6c0,2.1,0.9,3,2.2,3c1.4,0,2.3-0.9,2.3-3v-5.6h1.2v5.5c0,2.9-1.5,4.1-3.6,4.1
				c-1.9,0-3.4-1.1-3.4-4v-5.6H310.9z"/>
		</g>
	</g>
	<g>
		<g>
			<path class="st6" d="M136.1,451v-9.4h1.3l3,4.8c0.7,1.1,1.2,2.1,1.7,3.1l0,0c-0.1-1.3-0.1-2.4-0.1-3.9v-4h1.1v9.4h-1.2l-3-4.8
				c-0.7-1.1-1.3-2.1-1.8-3.2l0,0c0.1,1.2,0.1,2.3,0.1,3.9v4H136.1z"/>
			<path class="st6" d="M146.3,447.8c0,1.7,1.1,2.4,2.3,2.4c0.9,0,1.4-0.2,1.9-0.3l0.2,0.9c-0.4,0.2-1.2,0.4-2.3,0.4
				c-2.1,0-3.3-1.4-3.3-3.4s1.2-3.7,3.2-3.7c2.2,0,2.8,1.9,2.8,3.2c0,0.3,0,0.4,0,0.6H146.3z M149.9,447c0-0.8-0.3-2-1.7-2
				c-1.2,0-1.8,1.1-1.9,2H149.9z"/>
			<path class="st6" d="M158.8,444.2c0,0.5-0.1,1-0.1,1.9v3.9c0,1.6-0.3,2.5-1,3.1c-0.7,0.6-1.6,0.8-2.5,0.8c-0.8,0-1.7-0.2-2.3-0.6
				l0.3-0.9c0.4,0.3,1.1,0.5,2,0.5c1.3,0,2.2-0.7,2.2-2.4v-0.8h0c-0.4,0.6-1.1,1.1-2.2,1.1c-1.7,0-2.9-1.4-2.9-3.3
				c0-2.3,1.5-3.6,3.1-3.6c1.2,0,1.8,0.6,2.1,1.2h0l0.1-1H158.8z M157.5,446.9c0-0.2,0-0.4-0.1-0.6c-0.2-0.7-0.8-1.3-1.7-1.3
				c-1.2,0-2,1-2,2.6c0,1.3,0.7,2.4,2,2.4c0.8,0,1.4-0.5,1.7-1.3c0.1-0.2,0.1-0.4,0.1-0.7V446.9z"/>
			<path class="st6" d="M164.9,451l-0.1-0.9h0c-0.4,0.5-1.1,1-2.1,1c-1.4,0-2.1-1-2.1-1.9c0-1.6,1.5-2.5,4.1-2.5v-0.1
				c0-0.6-0.2-1.6-1.5-1.6c-0.6,0-1.3,0.2-1.8,0.5l-0.3-0.8c0.6-0.4,1.4-0.6,2.2-0.6c2.1,0,2.6,1.4,2.6,2.8v2.5c0,0.6,0,1.2,0.1,1.6
				H164.9z M164.7,447.5c-1.3,0-2.9,0.2-2.9,1.5c0,0.8,0.5,1.2,1.2,1.2c0.9,0,1.4-0.6,1.6-1.1c0-0.1,0.1-0.3,0.1-0.4V447.5z"/>
			<path class="st6" d="M169.7,442.3v1.9h1.8v0.9h-1.8v3.7c0,0.8,0.2,1.3,0.9,1.3c0.3,0,0.6,0,0.7-0.1l0.1,0.9
				c-0.2,0.1-0.6,0.2-1.1,0.2c-0.6,0-1-0.2-1.3-0.5c-0.4-0.4-0.5-1-0.5-1.8v-3.7h-1.1v-0.9h1.1v-1.6L169.7,442.3z"/>
			<path class="st6" d="M174.5,442.3c0,0.4-0.3,0.8-0.8,0.8c-0.4,0-0.7-0.3-0.7-0.8c0-0.4,0.3-0.8,0.8-0.8
				C174.2,441.5,174.5,441.9,174.5,442.3z M173.1,451v-6.8h1.2v6.8H173.1z"/>
			<path class="st6" d="M177.3,444.2l1.3,3.8c0.2,0.6,0.4,1.2,0.5,1.7h0c0.2-0.6,0.4-1.1,0.6-1.7l1.3-3.8h1.3l-2.7,6.8h-1.2
				l-2.6-6.8H177.3z"/>
			<path class="st6" d="M189.9,447.6c0,2.5-1.7,3.6-3.4,3.6c-1.8,0-3.2-1.3-3.2-3.5c0-2.3,1.5-3.6,3.4-3.6
				C188.5,444.1,189.9,445.5,189.9,447.6z M184.5,447.6c0,1.5,0.9,2.6,2.1,2.6c1.2,0,2.1-1.1,2.1-2.6c0-1.1-0.6-2.6-2-2.6
				S184.5,446.3,184.5,447.6z"/>
		</g>
	</g>
	<g>
		<g>
			<path class="st6" d="M249.6,451v-9.4h1.3l3,4.8c0.7,1.1,1.2,2.1,1.7,3.1l0,0c-0.1-1.3-0.1-2.4-0.1-3.9v-4h1.1v9.4h-1.2l-3-4.8
				c-0.7-1.1-1.3-2.1-1.8-3.2l0,0c0.1,1.2,0.1,2.3,0.1,3.9v4H249.6z"/>
			<path class="st6" d="M264.8,449.2c0,0.7,0,1.3,0.1,1.8h-1.1l-0.1-1.1h0c-0.3,0.5-1,1.3-2.2,1.3c-1.1,0-2.3-0.6-2.3-3v-4h1.2v3.8
				c0,1.3,0.4,2.2,1.5,2.2c0.8,0,1.4-0.6,1.6-1.1c0.1-0.2,0.1-0.4,0.1-0.6v-4.2h1.2V449.2z"/>
			<path class="st6" d="M267.1,441.1h1.2v9.9h-1.2V441.1z"/>
			<path class="st6" d="M276.9,447.6c0,2.5-1.7,3.6-3.4,3.6c-1.8,0-3.2-1.3-3.2-3.5c0-2.3,1.5-3.6,3.4-3.6
				C275.6,444.1,276.9,445.5,276.9,447.6z M271.6,447.6c0,1.5,0.9,2.6,2.1,2.6c1.2,0,2.1-1.1,2.1-2.6c0-1.1-0.6-2.6-2-2.6
				C272.2,445,271.6,446.3,271.6,447.6z"/>
		</g>
	</g>
	<g>
		<path d="M21.1,624.2h6.2v1.6h-4.3v3h4v1.6h-4v4.6h-2V624.2z"/>
		<path d="M36.1,632.7c0,0.9,0,1.7,0.1,2.3h-1.7l-0.1-1.2h0c-0.3,0.6-1.1,1.4-2.5,1.4c-1.4,0-2.7-0.8-2.7-3.4v-4.6h2v4.2
			c0,1.3,0.4,2.1,1.5,2.1c0.8,0,1.3-0.6,1.5-1.1c0.1-0.2,0.1-0.4,0.1-0.6v-4.7h2V632.7z"/>
		<path d="M40,631.7c0,1.4,1.2,2,2.4,2c0.9,0,1.6-0.1,2.2-0.4l0.3,1.4c-0.7,0.3-1.6,0.5-2.7,0.5c-2.5,0-4-1.6-4-3.9
			c0-2.2,1.3-4.2,3.8-4.2c2.5,0,3.4,2.1,3.4,3.8c0,0.4,0,0.7-0.1,0.8H40z M43.4,630.3c0-0.7-0.3-1.9-1.6-1.9c-1.2,0-1.7,1.1-1.8,1.9
			H43.4z"/>
		<path d="M47.3,629.7c0-1.1,0-1.8-0.1-2.5h1.7l0.1,1.5H49c0.4-1.1,1.3-1.7,2.1-1.7c0.2,0,0.3,0,0.5,0v1.9c-0.2,0-0.3-0.1-0.6-0.1
			c-0.9,0-1.6,0.6-1.8,1.5c0,0.2-0.1,0.4-0.1,0.6v4h-2V629.7z"/>
		<path d="M52.8,633.9l2.9-3.7c0.4-0.5,0.7-0.9,1.2-1.3v0H53v-1.6h6.2v1.2l-2.9,3.7c-0.4,0.5-0.8,0.9-1.2,1.3v0h4.1v1.6h-6.6V633.9z
			"/>
		<path d="M65.5,635l-0.1-0.9h0c-0.5,0.6-1.3,1-2.3,1c-1.6,0-2.4-1.1-2.4-2.3c0-2,1.7-3,4.6-2.9v-0.1c0-0.5-0.2-1.4-1.6-1.4
			c-0.8,0-1.6,0.2-2.1,0.6l-0.4-1.3c0.6-0.4,1.6-0.7,2.8-0.7c2.5,0,3.2,1.6,3.2,3.3v2.8c0,0.7,0,1.4,0.1,1.9H65.5z M65.2,631.2
			c-1.4,0-2.7,0.3-2.7,1.5c0,0.8,0.5,1.1,1.1,1.1c0.8,0,1.4-0.5,1.5-1.1c0-0.1,0.1-0.3,0.1-0.4V631.2z"/>
		<path d="M80.5,623.6v9.2c0,0.8,0,1.7,0.1,2.2h-1.8l-0.1-1.2h0c-0.5,0.9-1.4,1.4-2.5,1.4c-1.9,0-3.3-1.6-3.3-4
			c0-2.6,1.6-4.2,3.5-4.2c1.1,0,1.8,0.4,2.2,1h0v-4.4H80.5z M78.5,630.5c0-0.2,0-0.4,0-0.5c-0.2-0.8-0.8-1.4-1.7-1.4
			c-1.3,0-2,1.1-2,2.6c0,1.4,0.7,2.5,2,2.5c0.8,0,1.5-0.5,1.7-1.4c0-0.2,0.1-0.4,0.1-0.6V630.5z"/>
		<path d="M84.4,631.7c0,1.4,1.2,2,2.4,2c0.9,0,1.6-0.1,2.2-0.4l0.3,1.4c-0.7,0.3-1.6,0.5-2.7,0.5c-2.5,0-4-1.6-4-3.9
			c0-2.2,1.3-4.2,3.8-4.2c2.5,0,3.4,2.1,3.4,3.8c0,0.4,0,0.7-0.1,0.8H84.4z M87.8,630.3c0-0.7-0.3-1.9-1.6-1.9
			c-1.2,0-1.7,1.1-1.8,1.9H87.8z"/>
		<path d="M103.2,634.7c-0.5,0.2-1.5,0.5-2.8,0.5c-3.4,0-5.5-2.1-5.5-5.4c0-3.6,2.5-5.7,5.8-5.7c1.3,0,2.2,0.3,2.6,0.5l-0.4,1.6
			c-0.5-0.2-1.2-0.4-2.1-0.4c-2.2,0-3.8,1.4-3.8,4c0,2.4,1.4,3.9,3.8,3.9c0.8,0,1.6-0.2,2.1-0.4L103.2,634.7z"/>
		<path d="M112.4,631c0,2.9-2,4.1-4,4.1c-2.2,0-3.9-1.5-3.9-4c0-2.6,1.7-4.1,4-4.1C110.8,627,112.4,628.7,112.4,631z M106.5,631.1
			c0,1.5,0.7,2.6,1.9,2.6c1.1,0,1.9-1.1,1.9-2.7c0-1.2-0.5-2.6-1.9-2.6C107,628.5,106.5,629.8,106.5,631.1z"/>
		<path d="M114.4,629.7c0-1.1,0-1.8-0.1-2.5h1.7l0.1,1.5h0.1c0.4-1.1,1.3-1.7,2.1-1.7c0.2,0,0.3,0,0.5,0v1.9c-0.2,0-0.3-0.1-0.6-0.1
			c-0.9,0-1.6,0.6-1.8,1.5c0,0.2-0.1,0.4-0.1,0.6v4h-2V629.7z"/>
		<path d="M120.5,629.7c0-1.1,0-1.8-0.1-2.5h1.7l0.1,1.5h0.1c0.4-1.1,1.3-1.7,2.1-1.7c0.2,0,0.3,0,0.5,0v1.9c-0.2,0-0.3-0.1-0.6-0.1
			c-0.9,0-1.6,0.6-1.8,1.5c0,0.2-0.1,0.4-0.1,0.6v4h-2V629.7z"/>
		<path d="M127.8,631.7c0,1.4,1.2,2,2.4,2c0.9,0,1.6-0.1,2.2-0.4l0.3,1.4c-0.7,0.3-1.6,0.5-2.7,0.5c-2.5,0-4-1.6-4-3.9
			c0-2.2,1.3-4.2,3.8-4.2c2.5,0,3.4,2.1,3.4,3.8c0,0.4,0,0.7-0.1,0.8H127.8z M131.2,630.3c0-0.7-0.3-1.9-1.6-1.9
			c-1.2,0-1.7,1.1-1.8,1.9H131.2z"/>
		<path d="M135.1,623.6h2V635h-2V623.6z"/>
		<path d="M144,635l-0.1-0.9h0c-0.5,0.6-1.3,1-2.3,1c-1.6,0-2.4-1.1-2.4-2.3c0-2,1.7-3,4.6-2.9v-0.1c0-0.5-0.2-1.4-1.6-1.4
			c-0.8,0-1.6,0.2-2.1,0.6l-0.4-1.3c0.6-0.4,1.6-0.7,2.8-0.7c2.5,0,3.2,1.6,3.2,3.3v2.8c0,0.7,0,1.4,0.1,1.9H144z M143.7,631.2
			c-1.4,0-2.7,0.3-2.7,1.5c0,0.8,0.5,1.1,1.1,1.1c0.8,0,1.4-0.5,1.5-1.1c0-0.1,0.1-0.3,0.1-0.4V631.2z"/>
		<path d="M153.8,634.8c-0.4,0.2-1.2,0.4-2.2,0.4c-2.4,0-4-1.6-4-4c0-2.3,1.6-4.2,4.3-4.2c0.7,0,1.5,0.2,1.9,0.4l-0.4,1.5
			c-0.3-0.1-0.8-0.3-1.5-0.3c-1.5,0-2.4,1.1-2.4,2.5c0,1.6,1,2.5,2.4,2.5c0.7,0,1.2-0.1,1.6-0.3L153.8,634.8z"/>
		<path d="M157.8,625c0,0.6-0.4,1.1-1.1,1.1c-0.7,0-1.1-0.5-1.1-1.1c0-0.6,0.4-1.1,1.1-1.1C157.4,624,157.8,624.4,157.8,625z
			 M155.7,635v-7.8h2v7.8H155.7z"/>
		<path d="M167.6,631c0,2.9-2,4.1-4,4.1c-2.2,0-3.9-1.5-3.9-4c0-2.6,1.7-4.1,4-4.1C166,627,167.6,628.7,167.6,631z M161.7,631.1
			c0,1.5,0.7,2.6,1.9,2.6c1.1,0,1.9-1.1,1.9-2.7c0-1.2-0.5-2.6-1.9-2.6C162.3,628.5,161.7,629.8,161.7,631.1z M166,623.8l-2,2.4
			h-1.4l1.4-2.4H166z"/>
		<path d="M169.6,629.5c0-0.9,0-1.6-0.1-2.3h1.7l0.1,1.2h0c0.3-0.6,1.2-1.3,2.5-1.3c1.4,0,2.8,0.9,2.8,3.3v4.6h-2v-4.4
			c0-1.1-0.4-2-1.5-2c-0.8,0-1.3,0.6-1.5,1.2c-0.1,0.2-0.1,0.4-0.1,0.6v4.6h-2V629.5z"/>
	</g>
</g>
<g id="Layer_1">
	<circle class="st7" cx="71" cy="245.5" r="2.5"/>
	<circle class="st7" cx="77.3" cy="221.2" r="2.5"/>
	<circle class="st7" cx="121.7" cy="243.2" r="2.5"/>
	<circle class="st7" cx="110.5" cy="218" r="2.5"/>
	<circle class="st7" cx="149" cy="155.5" r="2.5"/>
	<circle class="st7" cx="189.7" cy="160" r="2.5"/>
	<circle class="st7" cx="192.3" cy="110.7" r="2.5"/>
	<circle class="st7" cx="123.7" cy="199.3" r="2.5"/>
	<circle class="st7" cx="95" cy="208.7" r="2.5"/>
	<circle class="st7" cx="95" cy="231.3" r="2.5"/>
	<circle class="st7" cx="143.8" cy="181.3" r="2.5"/>
	<circle class="st7" cx="103.7" cy="182" r="2.5"/>
	<circle class="st7" cx="172.3" cy="186.7" r="2.5"/>
	<circle class="st7" cx="192.3" cy="134" r="2.5"/>
	<circle class="st7" cx="159.7" cy="120.5" r="2.5"/>
	<circle class="st7" cx="156.5" cy="200.7" r="2.5"/>
	<circle class="st7" cx="178.5" cy="136.7" r="2.5"/>
	<circle class="st7" cx="129.7" cy="156.8" r="2.5"/>
	<circle class="st7" cx="71.2" cy="60.7" r="2.5"/>
	<circle class="st7" cx="213.8" cy="169.3" r="2.5"/>
	<circle class="st7" cx="225.8" cy="116" r="2.5"/>
	<circle class="st7" cx="243" cy="106.2" r="2.5"/>
	<circle class="st7" cx="202.5" cy="90" r="2.5"/>
	<circle class="st7" cx="243.2" cy="93.3" r="2.5"/>
	<circle class="st7" cx="250.3" cy="76.5" r="2.5"/>
	<circle class="st7" cx="232.3" cy="65.3" r="2.5"/>
	<g>
		<path class="st1" d="M85.1,65l-3.1-9.4h1.3l1.5,4.7c0.4,1.3,0.8,2.4,1,3.5h0c0.3-1.1,0.7-2.3,1.1-3.5l1.6-4.7h1.3L86.5,65H85.1z"
			/>
		<path class="st1" d="M94.1,65L94,64.1h0c-0.4,0.5-1.1,1-2.1,1c-1.4,0-2.1-1-2.1-1.9c0-1.6,1.5-2.5,4.1-2.5v-0.1
			c0-0.6-0.2-1.6-1.5-1.6c-0.6,0-1.3,0.2-1.8,0.5l-0.3-0.8c0.6-0.4,1.4-0.6,2.2-0.6c2.1,0,2.6,1.4,2.6,2.8v2.5c0,0.6,0,1.2,0.1,1.6
			H94.1z M93.9,61.5c-1.3,0-2.9,0.2-2.9,1.5c0,0.8,0.5,1.2,1.2,1.2c0.9,0,1.4-0.6,1.6-1.1c0-0.1,0.1-0.3,0.1-0.4V61.5z"/>
		<path class="st1" d="M97.1,55.1h1.2V65h-1.2V55.1z"/>
		<path class="st1" d="M106.6,61.6c0,2.5-1.7,3.6-3.4,3.6c-1.8,0-3.2-1.3-3.2-3.5c0-2.3,1.5-3.6,3.4-3.6
			C105.2,58.1,106.6,59.5,106.6,61.6z M101.2,61.6c0,1.5,0.9,2.6,2.1,2.6c1.2,0,2.1-1.1,2.1-2.6c0-1.1-0.6-2.6-2-2.6
			C101.8,59,101.2,60.3,101.2,61.6z"/>
		<path class="st1" d="M108.1,60.3c0-0.8,0-1.5-0.1-2.1h1.1l0,1.3h0.1c0.3-0.9,1.1-1.5,1.9-1.5c0.1,0,0.2,0,0.4,0v1.2
			c-0.1,0-0.3,0-0.4,0c-0.9,0-1.5,0.7-1.7,1.6c0,0.2-0.1,0.4-0.1,0.6V65h-1.2V60.3z"/>
		<path class="st1" d="M119.4,65l-0.1-0.9h0c-0.4,0.5-1.1,1-2.1,1c-1.4,0-2.1-1-2.1-1.9c0-1.6,1.5-2.5,4.1-2.5v-0.1
			c0-0.6-0.2-1.6-1.5-1.6c-0.6,0-1.3,0.2-1.8,0.5l-0.3-0.8c0.6-0.4,1.4-0.6,2.2-0.6c2.1,0,2.6,1.4,2.6,2.8v2.5c0,0.6,0,1.2,0.1,1.6
			H119.4z M119.2,61.5c-1.3,0-2.9,0.2-2.9,1.5c0,0.8,0.5,1.2,1.2,1.2c0.9,0,1.4-0.6,1.6-1.1c0-0.1,0.1-0.3,0.1-0.4V61.5z"/>
		<path class="st1" d="M123.8,56.3v1.9h1.8v0.9h-1.8v3.7c0,0.8,0.2,1.3,0.9,1.3c0.3,0,0.6,0,0.7-0.1l0.1,0.9
			c-0.2,0.1-0.6,0.2-1.1,0.2c-0.6,0-1-0.2-1.3-0.5c-0.4-0.4-0.5-1-0.5-1.8v-3.7h-1.1v-0.9h1.1v-1.6L123.8,56.3z"/>
		<path class="st1" d="M129.5,55.3l-1.7,2h-0.9l1.2-2H129.5z M127,65v-6.8h1.2V65H127z"/>
		<path class="st1" d="M130.3,60.4c0-0.9,0-1.6-0.1-2.2h1.1l0.1,1.2h0c0.5-0.8,1.3-1.3,2.4-1.3c1.6,0,2.9,1.4,2.9,3.4
			c0,2.4-1.5,3.6-3.1,3.6c-0.9,0-1.7-0.4-2.1-1.1h0v3.7h-1.2V60.4z M131.5,62.2c0,0.2,0,0.4,0.1,0.5c0.2,0.9,1,1.4,1.8,1.4
			c1.3,0,2.1-1.1,2.1-2.6c0-1.4-0.7-2.5-2-2.5c-0.8,0-1.6,0.6-1.9,1.5c0,0.2-0.1,0.3-0.1,0.5V62.2z"/>
		<path class="st1" d="M139.6,56.3c0,0.4-0.3,0.8-0.8,0.8c-0.4,0-0.7-0.3-0.7-0.8c0-0.4,0.3-0.8,0.8-0.8
			C139.3,55.5,139.6,55.9,139.6,56.3z M138.2,65v-6.8h1.2V65H138.2z"/>
		<path class="st1" d="M146.3,64.7c-0.3,0.2-1,0.4-1.9,0.4c-2,0-3.4-1.4-3.4-3.5c0-2.1,1.4-3.6,3.6-3.6c0.7,0,1.4,0.2,1.7,0.4
			l-0.3,1c-0.3-0.2-0.8-0.3-1.4-0.3c-1.6,0-2.4,1.1-2.4,2.6c0,1.6,1,2.5,2.4,2.5c0.7,0,1.2-0.2,1.5-0.3L146.3,64.7z"/>
		<path class="st1" d="M153.8,61.6c0,2.5-1.7,3.6-3.4,3.6c-1.8,0-3.2-1.3-3.2-3.5c0-2.3,1.5-3.6,3.4-3.6
			C152.5,58.1,153.8,59.5,153.8,61.6z M148.4,61.6c0,1.5,0.9,2.6,2.1,2.6c1.2,0,2.1-1.1,2.1-2.6c0-1.1-0.6-2.6-2-2.6
			C149.1,59,148.4,60.3,148.4,61.6z"/>
	</g>
	<g>
		<path class="st1" d="M231.1,139.7c0.6-0.1,1.4-0.2,2.3-0.2c1.2,0,2.1,0.3,2.6,0.8c0.5,0.4,0.8,1.1,0.8,2c0,0.9-0.3,1.5-0.7,2
			c-0.6,0.7-1.7,1-2.9,1c-0.4,0-0.7,0-1-0.1v3.8h-1.2V139.7z M232.3,144.2c0.3,0.1,0.6,0.1,1,0.1c1.5,0,2.4-0.7,2.4-2
			c0-1.2-0.9-1.8-2.2-1.8c-0.5,0-0.9,0-1.1,0.1V144.2z"/>
		<path class="st1" d="M243.9,147.2c0,0.7,0,1.3,0.1,1.8h-1.1l-0.1-1.1h0c-0.3,0.5-1,1.3-2.2,1.3c-1.1,0-2.3-0.6-2.3-3v-4h1.2v3.8
			c0,1.3,0.4,2.2,1.5,2.2c0.8,0,1.4-0.6,1.6-1.1c0.1-0.2,0.1-0.4,0.1-0.6v-4.2h1.2V147.2z"/>
		<path class="st1" d="M246,144.1c0-0.7,0-1.3-0.1-1.8h1.1l0.1,1.1h0c0.3-0.6,1.1-1.3,2.2-1.3c0.9,0,2.4,0.6,2.4,2.9v4h-1.2v-3.9
			c0-1.1-0.4-2-1.6-2c-0.8,0-1.4,0.6-1.7,1.3c-0.1,0.2-0.1,0.4-0.1,0.6v4.1H246V144.1z"/>
		<path class="st1" d="M255.2,140.3v1.9h1.8v0.9h-1.8v3.7c0,0.8,0.2,1.3,0.9,1.3c0.3,0,0.6,0,0.7-0.1l0.1,0.9
			c-0.2,0.1-0.6,0.2-1.1,0.2c-0.6,0-1-0.2-1.3-0.5c-0.4-0.4-0.5-1-0.5-1.8v-3.7h-1.1v-0.9h1.1v-1.6L255.2,140.3z"/>
		<path class="st1" d="M264.4,145.6c0,2.5-1.7,3.6-3.4,3.6c-1.8,0-3.2-1.3-3.2-3.5c0-2.3,1.5-3.6,3.4-3.6
			C263.1,142.1,264.4,143.5,264.4,145.6z M259,145.6c0,1.5,0.9,2.6,2.1,2.6c1.2,0,2.1-1.1,2.1-2.6c0-1.1-0.6-2.6-2-2.6
			S259,144.3,259,145.6z"/>
		<path class="st1" d="M265.8,147.7c0.4,0.2,1,0.5,1.6,0.5c0.9,0,1.3-0.4,1.3-1c0-0.6-0.3-0.9-1.3-1.2c-1.2-0.4-1.8-1.1-1.8-1.9
			c0-1.1,0.9-2,2.3-2c0.7,0,1.3,0.2,1.7,0.4l-0.3,0.9c-0.3-0.2-0.8-0.4-1.4-0.4c-0.7,0-1.1,0.4-1.1,0.9c0,0.6,0.4,0.8,1.3,1.1
			c1.2,0.4,1.8,1,1.8,2c0,1.2-0.9,2-2.5,2c-0.7,0-1.4-0.2-1.9-0.5L265.8,147.7z"/>
	</g>
	<g>
		<path class="st1" d="M139.6,294.3c-1,1.4-1.8,3.2-1.8,5.7c0,2.5,0.8,4.3,1.8,5.7h-1c-0.9-1.2-1.8-3-1.8-5.7c0-2.8,1-4.6,1.8-5.7
			H139.6z"/>
		<path class="st1" d="M145.8,299.6h-3.7v3.4h4.1v1H141v-9.4h5.1v1h-3.9v3h3.7V299.6z"/>
		<path class="st1" d="M147.6,302.7c0.4,0.2,1,0.5,1.6,0.5c0.9,0,1.3-0.4,1.3-1c0-0.6-0.4-0.9-1.3-1.2c-1.2-0.4-1.8-1.1-1.8-1.9
			c0-1.1,0.9-2,2.3-2c0.7,0,1.3,0.2,1.7,0.4l-0.3,0.9c-0.3-0.2-0.8-0.4-1.4-0.4c-0.7,0-1.1,0.4-1.1,0.9c0,0.6,0.4,0.8,1.3,1.1
			c1.2,0.4,1.8,1,1.8,2c0,1.2-0.9,2-2.5,2c-0.7,0-1.4-0.2-1.9-0.5L147.6,302.7z"/>
		<path class="st1" d="M158.2,303.7c-0.3,0.2-1,0.4-1.9,0.4c-2,0-3.4-1.4-3.4-3.5c0-2.1,1.4-3.6,3.6-3.6c0.7,0,1.4,0.2,1.7,0.4
			l-0.3,1c-0.3-0.2-0.8-0.3-1.4-0.3c-1.6,0-2.4,1.1-2.4,2.6c0,1.6,1,2.5,2.4,2.5c0.7,0,1.2-0.2,1.5-0.3L158.2,303.7z"/>
		<path class="st1" d="M163.4,304l-0.1-0.9h0c-0.4,0.5-1.1,1-2.1,1c-1.4,0-2.1-1-2.1-1.9c0-1.6,1.5-2.5,4.1-2.5v-0.1
			c0-0.6-0.2-1.6-1.5-1.6c-0.6,0-1.3,0.2-1.8,0.5l-0.3-0.8c0.6-0.4,1.4-0.6,2.2-0.6c2.1,0,2.6,1.4,2.6,2.8v2.5c0,0.6,0,1.2,0.1,1.6
			H163.4z M163.2,300.5c-1.3,0-2.9,0.2-2.9,1.5c0,0.8,0.5,1.2,1.2,1.2c0.9,0,1.4-0.6,1.6-1.1c0-0.1,0.1-0.3,0.1-0.4V300.5z"/>
		<path class="st1" d="M166.4,294.1h1.2v9.9h-1.2V294.1z"/>
		<path class="st1" d="M173.4,304l-0.1-0.9h0c-0.4,0.5-1.1,1-2.1,1c-1.4,0-2.1-1-2.1-1.9c0-1.6,1.5-2.5,4.1-2.5v-0.1
			c0-0.6-0.2-1.6-1.5-1.6c-0.6,0-1.3,0.2-1.8,0.5l-0.3-0.8c0.6-0.4,1.4-0.6,2.2-0.6c2.1,0,2.6,1.4,2.6,2.8v2.5c0,0.6,0,1.2,0.1,1.6
			H173.4z M173.2,300.5c-1.3,0-2.9,0.2-2.9,1.5c0,0.8,0.5,1.2,1.2,1.2c0.9,0,1.4-0.6,1.6-1.1c0-0.1,0.1-0.3,0.1-0.4V300.5z"/>
		<path class="st1" d="M175.7,305.7c1-1.4,1.8-3.2,1.8-5.7c0-2.5-0.8-4.3-1.8-5.7h1c0.9,1.1,1.8,2.9,1.8,5.7c0,2.7-0.9,4.5-1.8,5.7
			H175.7z"/>
	</g>
	<circle class="st8" cx="35.9" cy="415.1" r="1.9"/>
	<circle class="st8" cx="45.2" cy="421.7" r="1.9"/>
	<circle class="st9" cx="33.5" cy="550.2" r="1.9"/>
	<circle class="st9" cx="44.1" cy="540.7" r="1.9"/>
	<circle class="st9" cx="60.2" cy="526.8" r="1.9"/>
	<circle class="st9" cx="78.7" cy="511.8" r="1.9"/>
	<circle class="st9" cx="94.5" cy="493" r="1.9"/>
	<circle class="st9" cx="98.5" cy="486.8" r="1.9"/>
	<circle class="st9" cx="84.7" cy="501.2" r="1.9"/>
	<circle class="st9" cx="71.8" cy="508.7" r="1.9"/>
	<circle class="st9" cx="70.8" cy="521.3" r="1.9"/>
	<circle class="st9" cx="63.4" cy="514.5" r="1.9"/>
	<circle class="st9" cx="87.4" cy="490.5" r="1.9"/>
	<circle class="st9" cx="53" cy="521.3" r="1.9"/>
	<circle class="st9" cx="77.9" cy="498.5" r="1.9"/>
	<circle class="st9" cx="93.4" cy="503.5" r="1.9"/>
	<circle class="st9" cx="53.4" cy="538.1" r="1.9"/>
	<circle class="st9" cx="47.5" cy="531.5" r="1.9"/>
	<circle class="st9" cx="36" cy="539.7" r="1.9"/>
	<circle class="st9" cx="41.4" cy="548.4" r="1.9"/>
	<circle class="st9" cx="143.9" cy="546.9" r="1.9"/>
	<circle class="st9" cx="159.9" cy="547.5" r="1.9"/>
	<circle class="st9" cx="156.2" cy="541.8" r="1.9"/>
	<circle class="st9" cx="149.9" cy="549.8" r="1.9"/>
	<circle class="st9" cx="172.3" cy="539" r="1.9"/>
	<circle class="st9" cx="180.5" cy="528" r="1.9"/>
	<circle class="st9" cx="190.5" cy="532.5" r="1.9"/>
	<circle class="st9" cx="193" cy="514" r="1.9"/>
	<circle class="st9" cx="201" cy="504.3" r="1.9"/>
	<circle class="st9" cx="209.2" cy="505.5" r="1.9"/>
	<circle class="st9" cx="202.2" cy="489.8" r="1.9"/>
	<circle class="st9" cx="208.2" cy="490.5" r="1.9"/>
	<circle class="st9" cx="167.8" cy="544" r="1.9"/>
	<circle class="st9" cx="180" cy="537.6" r="1.9"/>
	<circle class="st9" cx="174.2" cy="544.5" r="1.9"/>
	<circle class="st9" cx="195.5" cy="526.4" r="1.9"/>
	<circle class="st9" cx="198.8" cy="518.7" r="1.9"/>
	<circle class="st9" cx="189.5" cy="522.5" r="1.9"/>
	<circle class="st9" cx="204" cy="509.2" r="1.9"/>
	<circle class="st9" cx="208" cy="498.5" r="1.9"/>
	<circle class="st9" cx="209.2" cy="480.5" r="1.9"/>
	<circle class="st9" cx="261" cy="493.7" r="1.9"/>
	<circle class="st9" cx="262" cy="505.3" r="1.9"/>
	<circle class="st9" cx="266.5" cy="519" r="1.9"/>
	<circle class="st9" cx="263.7" cy="535" r="1.9"/>
	<circle class="st9" cx="269.8" cy="545.2" r="1.9"/>
	<circle class="st9" cx="296.5" cy="552" r="1.9"/>
	<circle class="st9" cx="305.3" cy="548.3" r="1.9"/>
	<circle class="st9" cx="314.5" cy="542.2" r="1.9"/>
	<circle class="st9" cx="318.3" cy="525.8" r="1.9"/>
	<circle class="st9" cx="320" cy="504.3" r="1.9"/>
	<circle class="st9" cx="319.5" cy="491.3" r="1.9"/>
	<circle class="st9" cx="309.5" cy="504.8" r="1.9"/>
	<circle class="st9" cx="320" cy="515.8" r="1.9"/>
	<circle class="st9" cx="311" cy="527.7" r="1.9"/>
	<circle class="st9" cx="319.3" cy="537" r="1.9"/>
	<circle class="st9" cx="299.5" cy="543.2" r="1.9"/>
	<circle class="st9" cx="273.8" cy="537" r="1.9"/>
	<circle class="st9" cx="258.2" cy="525.3" r="1.9"/>
	<circle class="st9" cx="270.2" cy="509" r="1.9"/>
	<circle class="st9" cx="268.8" cy="496.2" r="1.9"/>
	<circle class="st9" cx="267.8" cy="528.5" r="1.9"/>
	<circle class="st9" cx="280.5" cy="545.5" r="1.9"/>
	<circle class="st9" cx="289.7" cy="545" r="1.9"/>
	<circle class="st9" cx="289.7" cy="538.5" r="1.9"/>
	<circle class="st9" cx="323.2" cy="520" r="1.9"/>
	<circle class="st9" cx="310.5" cy="514.5" r="1.9"/>
	<circle class="st8" cx="46.6" cy="405.9" r="1.9"/>
	<circle class="st8" cx="54.1" cy="413.4" r="1.9"/>
	<circle class="st8" cx="57.6" cy="392.7" r="1.9"/>
	<circle class="st8" cx="56.7" cy="403.1" r="1.9"/>
	<circle class="st8" cx="66.4" cy="388.2" r="1.9"/>
	<circle class="st8" cx="73.2" cy="395.9" r="1.9"/>
	<circle class="st8" cx="49.2" cy="396.7" r="1.9"/>
	<circle class="st8" cx="73.4" cy="371.6" r="1.9"/>
	<circle class="st8" cx="66.2" cy="401.6" r="1.9"/>
	<circle class="st8" cx="45.1" cy="412.4" r="1.9"/>
	<circle class="st8" cx="34.5" cy="422.2" r="1.9"/>
	<circle class="st8" cx="73.6" cy="379.1" r="1.9"/>
	<circle class="st8" cx="79.6" cy="384.9" r="1.9"/>
	<circle class="st8" cx="81.9" cy="371.1" r="1.9"/>
	<circle class="st8" cx="89.9" cy="378.7" r="1.9"/>
	<circle class="st8" cx="90.6" cy="362.4" r="1.9"/>
	<circle class="st8" cx="95.1" cy="368.9" r="1.9"/>
	<circle class="st8" cx="99.7" cy="357.6" r="1.9"/>
	<circle class="st8" cx="150.8" cy="364.7" r="1.9"/>
	<circle class="st8" cx="147.3" cy="372.5" r="1.9"/>
	<circle class="st8" cx="160.2" cy="374.1" r="1.9"/>
	<circle class="st8" cx="152.7" cy="381.6" r="1.9"/>
	<circle class="st8" cx="173.3" cy="385.1" r="1.9"/>
	<circle class="st8" cx="163" cy="384.2" r="1.9"/>
	<circle class="st8" cx="180.8" cy="392.5" r="1.9"/>
	<circle class="st8" cx="171.9" cy="399" r="1.9"/>
	<circle class="st8" cx="172.4" cy="392" r="1.9"/>
	<circle class="st8" cx="174.1" cy="405.7" r="1.9"/>
	<circle class="st8" cx="169.3" cy="376.7" r="1.9"/>
	<circle class="st8" cx="191.8" cy="400.9" r="1.9"/>
	<circle class="st8" cx="256.3" cy="391" r="1.9"/>
	<circle class="st8" cx="263.3" cy="395.3" r="1.9"/>
	<circle class="st8" cx="264.3" cy="382.7" r="1.9"/>
	<circle class="st8" cx="275.7" cy="390.3" r="1.9"/>
	<circle class="st8" cx="270" cy="392.2" r="1.9"/>
	<circle class="st8" cx="282" cy="381.3" r="1.9"/>
	<circle class="st8" cx="284.2" cy="396.3" r="1.9"/>
	<circle class="st8" cx="294" cy="382.3" r="1.9"/>
	<circle class="st8" cx="297" cy="398" r="1.9"/>
	<circle class="st8" cx="301" cy="388" r="1.9"/>
	<circle class="st8" cx="286" cy="388.7" r="1.9"/>
	<circle class="st8" cx="294.7" cy="392" r="1.9"/>
	<circle class="st8" cx="312.7" cy="382.3" r="1.9"/>
	<circle class="st8" cx="306.7" cy="394" r="1.9"/>
	<circle class="st8" cx="314" cy="388.7" r="1.9"/>
	<circle class="st8" cx="319.3" cy="397.7" r="1.9"/>
	<circle class="st8" cx="323.7" cy="385.7" r="1.9"/>
	<circle class="st8" cx="326" cy="392.3" r="1.9"/>
	<circle class="st8" cx="164.5" cy="393.7" r="1.9"/>
	<circle class="st8" cx="154.4" cy="370.8" r="1.9"/>
	<circle class="st8" cx="144.6" cy="362.8" r="1.9"/>
	<circle class="st8" cx="183.5" cy="399.8" r="1.9"/>
	<circle class="st8" cx="181.2" cy="407.1" r="1.9"/>
	<circle class="st8" cx="193.8" cy="408.8" r="1.9"/>
	<circle class="st8" cx="187.3" cy="417.4" r="1.9"/>
	<circle class="st8" cx="201.8" cy="417" r="1.9"/>
	<circle class="st8" cx="195.4" cy="419.6" r="1.9"/>
	<circle class="st8" cx="205.4" cy="424" r="1.9"/>
	<circle class="st10" cx="33.5" cy="722.7" r="1.9"/>
	<circle class="st10" cx="40.8" cy="727.4" r="1.9"/>
	<circle class="st10" cx="43.2" cy="712.6" r="1.9"/>
	<circle class="st10" cx="49.7" cy="718.1" r="1.9"/>
	<circle class="st10" cx="54.2" cy="699.4" r="1.9"/>
	<circle class="st10" cx="53.3" cy="709.7" r="1.9"/>
	<circle class="st10" cx="63" cy="694.9" r="1.9"/>
	<circle class="st10" cx="68.8" cy="701.6" r="1.9"/>
	<circle class="st10" cx="46.8" cy="704.4" r="1.9"/>
	<circle class="st10" cx="69" cy="681.2" r="1.9"/>
	<circle class="st10" cx="61.8" cy="707.2" r="1.9"/>
	<circle class="st10" cx="41.7" cy="719.1" r="1.9"/>
	<circle class="st10" cx="31.1" cy="731.9" r="1.9"/>
	<circle class="st10" cx="70.2" cy="690.7" r="1.9"/>
	<circle class="st10" cx="76.2" cy="690.6" r="1.9"/>
	<circle class="st10" cx="76.2" cy="684.2" r="1.9"/>
	<circle class="st10" cx="78.5" cy="677.7" r="1.9"/>
	<circle class="st10" cx="84.5" cy="683.4" r="1.9"/>
	<circle class="st10" cx="87.2" cy="669.1" r="1.9"/>
	<circle class="st10" cx="89.7" cy="675.6" r="1.9"/>
	<circle class="st10" cx="96.3" cy="664.2" r="1.9"/>
	<circle class="st10" cx="145" cy="719.7" r="1.9"/>
	<circle class="st10" cx="161" cy="731.5" r="1.9"/>
	<circle class="st10" cx="152.5" cy="707" r="1.9"/>
	<circle class="st10" cx="171.5" cy="721.8" r="1.9"/>
	<circle class="st10" cx="176.5" cy="710.7" r="1.9"/>
	<circle class="st10" cx="161.8" cy="714" r="1.9"/>
	<circle class="st10" cx="169.2" cy="688.6" r="1.9"/>
	<circle class="st10" cx="185.6" cy="703" r="1.9"/>
	<circle class="st10" cx="261.3" cy="667.2" r="1.9"/>
	<circle class="st10" cx="267.8" cy="707.2" r="1.9"/>
	<circle class="st10" cx="295.5" cy="700.5" r="1.9"/>
	<circle class="st10" cx="287" cy="672.5" r="1.9"/>
	<circle class="st10" cx="315.2" cy="664.8" r="1.9"/>
	<circle class="st10" cx="323" cy="688.5" r="1.9"/>
	<circle class="st10" cx="294" cy="690.8" r="1.9"/>
	<circle class="st10" cx="265" cy="683.2" r="1.9"/>
	<circle class="st10" cx="263.2" cy="730.8" r="1.9"/>
	<circle class="st10" cx="287" cy="716.2" r="1.9"/>
	<circle class="st10" cx="256.5" cy="726.8" r="1.9"/>
	<circle class="st10" cx="295" cy="731.5" r="1.9"/>
	<circle class="st10" cx="313" cy="709.2" r="1.9"/>
	<circle class="st10" cx="323.8" cy="729" r="1.9"/>
	<circle class="st10" cx="308.5" cy="685.8" r="1.9"/>
	<circle class="st10" cx="272.5" cy="697.5" r="1.9"/>
	<circle class="st10" cx="282.2" cy="668" r="1.9"/>
	<circle class="st10" cx="284" cy="691.8" r="1.9"/>
	<circle class="st10" cx="258" cy="705.5" r="1.9"/>
	<circle class="st10" cx="280.2" cy="730" r="1.9"/>
	<circle class="st10" cx="302.5" cy="672.5" r="1.9"/>
	<circle class="st10" cx="306.5" cy="727.5" r="1.9"/>
	<circle class="st10" cx="320.8" cy="715.5" r="1.9"/>
	<circle class="st10" cx="161.1" cy="690.1" r="1.9"/>
	<circle class="st10" cx="178.1" cy="678.5" r="1.9"/>
	<circle class="st10" cx="188" cy="716.3" r="1.9"/>
	<circle class="st10" cx="154.2" cy="723.8" r="1.9"/>
	<circle class="st10" cx="146.1" cy="729.9" r="1.9"/>
	<circle class="st10" cx="179.5" cy="693.5" r="1.9"/>
	<circle class="st10" cx="197" cy="701.5" r="1.9"/>
	<circle class="st10" cx="189.5" cy="684.2" r="1.9"/>
	<circle class="st10" cx="181" cy="663" r="1.9"/>
	<circle class="st10" cx="195.5" cy="689.4" r="1.9"/>
	<circle class="st10" cx="200.9" cy="677" r="1.9"/>
	<circle class="st10" cx="199.4" cy="663" r="1.9"/>
	<circle class="st10" cx="203.4" cy="659" r="1.9"/>
	<circle class="st10" cx="206" cy="681.1" r="1.9"/>
	<circle class="st10" cx="209.6" cy="664.2" r="1.9"/>
	<line class="st11" x1="20" y1="328" x2="331.5" y2="328"/>
</g>
<g id="Layer_3">
	<line class="st12" x1="63.7" y1="250.7" x2="253.3" y2="61"/>
	<g>
		<path class="st1" d="M257.1,31.6h1.2V40h4v1h-5.3V31.6z"/>
		<path class="st1" d="M266.1,31.3l-1.7,2h-0.9l1.2-2H266.1z M263.6,41v-6.8h1.2V41H263.6z"/>
		<path class="st1" d="M266.9,36.1c0-0.7,0-1.3-0.1-1.8h1.1l0.1,1.1h0c0.3-0.6,1.1-1.3,2.2-1.3c0.9,0,2.4,0.6,2.4,2.9v4h-1.2v-3.9
			c0-1.1-0.4-2-1.6-2c-0.8,0-1.4,0.6-1.7,1.3c-0.1,0.2-0.1,0.4-0.1,0.6V41h-1.2V36.1z"/>
		<path class="st1" d="M275.4,37.8c0,1.7,1.1,2.4,2.3,2.4c0.9,0,1.4-0.2,1.9-0.4l0.2,0.9c-0.4,0.2-1.2,0.4-2.3,0.4
			c-2.1,0-3.3-1.4-3.3-3.4c0-2,1.2-3.7,3.2-3.7c2.2,0,2.8,1.9,2.8,3.2c0,0.3,0,0.4,0,0.6H275.4z M279,37c0-0.8-0.3-2-1.7-2
			c-1.2,0-1.8,1.1-1.9,2H279z"/>
		<path class="st1" d="M285.4,41l-0.1-0.9h0c-0.4,0.5-1.1,1-2.1,1c-1.4,0-2.1-1-2.1-1.9c0-1.6,1.5-2.5,4.1-2.5v-0.1
			c0-0.6-0.2-1.6-1.5-1.6c-0.6,0-1.3,0.2-1.8,0.5l-0.3-0.8c0.6-0.4,1.4-0.6,2.2-0.6c2.1,0,2.6,1.4,2.6,2.8v2.5c0,0.6,0,1.2,0.1,1.6
			H285.4z M285.3,37.5c-1.3,0-2.9,0.2-2.9,1.5c0,0.8,0.5,1.2,1.2,1.2c0.9,0,1.4-0.6,1.6-1.1c0-0.1,0.1-0.3,0.1-0.4V37.5z"/>
		<path class="st1" d="M297.3,31.1v8.2c0,0.6,0,1.3,0.1,1.8h-1.1l-0.1-1.2h0c-0.4,0.8-1.2,1.3-2.3,1.3c-1.6,0-2.9-1.4-2.9-3.4
			c0-2.3,1.4-3.6,3-3.6c1,0,1.7,0.5,2,1h0v-4H297.3z M296,37c0-0.2,0-0.4-0.1-0.5c-0.2-0.8-0.9-1.4-1.8-1.4c-1.3,0-2,1.1-2,2.6
			c0,1.4,0.7,2.5,2,2.5c0.8,0,1.6-0.5,1.8-1.5c0-0.2,0.1-0.3,0.1-0.5V37z"/>
		<path class="st1" d="M300,37.8c0,1.7,1.1,2.4,2.3,2.4c0.9,0,1.4-0.2,1.9-0.4l0.2,0.9c-0.4,0.2-1.2,0.4-2.3,0.4
			c-2.1,0-3.3-1.4-3.3-3.4c0-2,1.2-3.7,3.2-3.7c2.2,0,2.8,1.9,2.8,3.2c0,0.3,0,0.4,0,0.6H300z M303.6,37c0-0.8-0.3-2-1.7-2
			c-1.2,0-1.8,1.1-1.9,2H303.6z"/>
		<path class="st1" d="M257,52.9c0-0.7,0-1.3-0.1-1.8h1.1l0.1,1.1h0c0.4-0.6,1-1.2,2.1-1.2c0.9,0,1.6,0.6,1.9,1.4h0
			c0.2-0.4,0.5-0.7,0.8-0.9c0.4-0.3,0.9-0.5,1.5-0.5c0.9,0,2.2,0.6,2.2,2.9v4h-1.2V54c0-1.3-0.5-2.1-1.5-2.1c-0.7,0-1.2,0.5-1.5,1.1
			c-0.1,0.2-0.1,0.4-0.1,0.6v4.2h-1.2v-4.1c0-1.1-0.5-1.9-1.4-1.9c-0.8,0-1.3,0.6-1.5,1.2c-0.1,0.2-0.1,0.4-0.1,0.6v4.1H257V52.9z"
			/>
		<path class="st1" d="M269.4,54.6c0,1.7,1.1,2.4,2.3,2.4c0.9,0,1.4-0.2,1.9-0.4l0.2,0.9c-0.4,0.2-1.2,0.4-2.3,0.4
			c-2.1,0-3.3-1.4-3.3-3.4c0-2,1.2-3.7,3.2-3.7c2.2,0,2.8,1.9,2.8,3.2c0,0.3,0,0.4,0,0.6H269.4z M273,53.8c0-0.8-0.3-2-1.7-2
			c-1.2,0-1.8,1.1-1.9,2H273z"/>
		<path class="st1" d="M274.1,59.8c0.6,0,1-0.2,1.3-0.5c0.3-0.4,0.5-0.9,0.5-2.5V51h1.2v6.1c0,1.3-0.2,2.2-0.8,2.8
			c-0.5,0.5-1.4,0.8-2.1,0.8L274.1,59.8z M277.2,49.1c0,0.4-0.3,0.8-0.8,0.8c-0.5,0-0.8-0.4-0.8-0.8c0-0.4,0.3-0.8,0.8-0.8
			C276.9,48.3,277.2,48.7,277.2,49.1z"/>
		<path class="st1" d="M285.2,54.4c0,2.5-1.7,3.6-3.4,3.6c-1.8,0-3.2-1.3-3.2-3.5c0-2.3,1.5-3.6,3.4-3.6
			C283.9,50.9,285.2,52.3,285.2,54.4z M279.9,54.4c0,1.5,0.9,2.6,2.1,2.6c1.2,0,2.1-1.1,2.1-2.6c0-1.1-0.6-2.6-2-2.6
			S279.9,53.1,279.9,54.4z"/>
		<path class="st1" d="M286.8,53.1c0-0.8,0-1.5-0.1-2.1h1.1l0,1.3h0.1c0.3-0.9,1-1.5,1.9-1.5c0.1,0,0.2,0,0.3,0v1.2
			c-0.1,0-0.3,0-0.4,0c-0.9,0-1.5,0.7-1.7,1.6c0,0.2-0.1,0.4-0.1,0.6v3.6h-1.2V53.1z"/>
		<path class="st1" d="M298.1,57.8l-0.1-0.9h0c-0.4,0.5-1.1,1-2.1,1c-1.4,0-2.1-1-2.1-1.9c0-1.6,1.5-2.5,4.1-2.5v-0.1
			c0-0.6-0.2-1.6-1.5-1.6c-0.6,0-1.3,0.2-1.8,0.5l-0.3-0.8c0.6-0.4,1.4-0.6,2.2-0.6c2.1,0,2.6,1.4,2.6,2.8v2.5c0,0.6,0,1.2,0.1,1.6
			H298.1z M297.9,54.3c-1.3,0-2.9,0.2-2.9,1.5c0,0.8,0.5,1.2,1.2,1.2c0.9,0,1.4-0.6,1.6-1.1c0-0.1,0.1-0.3,0.1-0.4V54.3z"/>
		<path class="st1" d="M299.4,59.8c0.6,0,1-0.2,1.3-0.5c0.3-0.4,0.5-0.9,0.5-2.5V51h1.2v6.1c0,1.3-0.2,2.2-0.8,2.8
			c-0.5,0.5-1.4,0.8-2.1,0.8L299.4,59.8z M302.6,49.1c0,0.4-0.3,0.8-0.8,0.8c-0.5,0-0.8-0.4-0.8-0.8c0-0.4,0.3-0.8,0.8-0.8
			C302.3,48.3,302.6,48.7,302.6,49.1z"/>
		<path class="st1" d="M310.2,56c0,0.7,0,1.3,0.1,1.8h-1.1l-0.1-1.1h0c-0.3,0.5-1,1.3-2.2,1.3c-1.1,0-2.3-0.6-2.3-3v-4h1.2v3.8
			c0,1.3,0.4,2.2,1.5,2.2c0.8,0,1.4-0.6,1.6-1.1c0.1-0.2,0.1-0.4,0.1-0.6V51h1.2V56z"/>
		<path class="st1" d="M312,56.5c0.4,0.2,1,0.5,1.6,0.5c0.9,0,1.3-0.4,1.3-1c0-0.6-0.3-0.9-1.3-1.2c-1.2-0.4-1.8-1.1-1.8-1.9
			c0-1.1,0.9-2,2.3-2c0.7,0,1.3,0.2,1.7,0.4l-0.3,0.9c-0.3-0.2-0.8-0.4-1.4-0.4c-0.7,0-1.1,0.4-1.1,0.9c0,0.6,0.4,0.8,1.3,1.1
			c1.2,0.4,1.8,1,1.8,2c0,1.2-0.9,2-2.5,2c-0.7,0-1.4-0.2-1.9-0.5L312,56.5z"/>
		<path class="st1" d="M319.2,49.1V51h1.8V52h-1.8v3.7c0,0.8,0.2,1.3,0.9,1.3c0.3,0,0.6,0,0.7-0.1l0.1,0.9c-0.2,0.1-0.6,0.2-1.1,0.2
			c-0.6,0-1-0.2-1.3-0.5c-0.4-0.4-0.5-1-0.5-1.8V52H317V51h1.1v-1.6L319.2,49.1z"/>
		<path class="st1" d="M323,54.6c0,1.7,1.1,2.4,2.3,2.4c0.9,0,1.4-0.2,1.9-0.4l0.2,0.9c-0.4,0.2-1.2,0.4-2.3,0.4
			c-2.1,0-3.3-1.4-3.3-3.4c0-2,1.2-3.7,3.2-3.7c2.2,0,2.8,1.9,2.8,3.2c0,0.3,0,0.4,0,0.6H323z M326.6,53.8c0-0.8-0.3-2-1.7-2
			c-1.2,0-1.8,1.1-1.9,2H326.6z"/>
	</g>
	<g>
		<g>
			<line class="st13" x1="229" y1="152.7" x2="219.9" y2="163.5"/>
			<g>
				<polygon class="st6" points="218.7,161.7 218,165.7 221.8,164.3 				"/>
			</g>
		</g>
	</g>
	<g>
		<g>
			<line class="st13" x1="227" y1="147.2" x2="197.7" y2="156.8"/>
			<g>
				<polygon class="st6" points="197.7,154.7 195,157.7 198.9,158.5 				"/>
			</g>
		</g>
	</g>
	<g>
		<g>
			<line class="st13" x1="228.5" y1="142" x2="200.5" y2="135.6"/>
			<g>
				<polygon class="st6" points="201.5,133.8 197.7,135 200.6,137.7 				"/>
			</g>
		</g>
	</g>
	<g>
		<g>
			<line class="st13" x1="230.3" y1="136.3" x2="227.1" y2="124.4"/>
			<g>
				<polygon class="st6" points="229.2,124.5 226.3,121.7 225.3,125.5 				"/>
			</g>
		</g>
	</g>
	<g>
	</g>
	<g>
	</g>
	<g>
	</g>
	<g>
	</g>
	<g>
	</g>
	<g>
	</g>
	<g>
	</g>
	<g>
	</g>
	<g>
	</g>
	<g>
	</g>
</g>
</svg>
